<?xml version="1.0" encoding="UTF-8"?>
<svg id="Layer_1" xmlns="http://www.w3.org/2000/svg" version="1.1" xmlns:xlink="http://www.w3.org/1999/xlink" viewBox="0 0 737 194.12">
  <!-- Generator: Adobe Illustrator 29.4.0, SVG Export Plug-In . SVG Version: 2.1.0 Build 152)  -->
  <defs>
    <style>
      .st0 {
        fill: url(#linear-gradient2);
      }

      .st1 {
        fill: url(#linear-gradient10);
      }

      .st2 {
        fill: url(#linear-gradient1);
      }

      .st3 {
        fill: #ff9305;
      }

      .st4 {
        fill: url(#linear-gradient8);
      }

      .st5 {
        fill: url(#linear-gradient11);
      }

      .st6 {
        fill: #043353;
      }

      .st7 {
        fill: url(#linear-gradient12);
      }

      .st8 {
        fill: url(#linear-gradient4);
      }

      .st9 {
        fill: url(#linear-gradient5);
      }

      .st10 {
        fill: url(#linear-gradient3);
      }

      .st11 {
        stroke: url(#linear-gradient9);
      }

      .st11, .st12 {
        fill: none;
        stroke-miterlimit: 10;
        stroke-width: .5px;
      }

      .st12 {
        stroke: url(#linear-gradient7);
      }

      .st13 {
        fill: url(#linear-gradient6);
      }

      .st14 {
        fill: url(#linear-gradient13);
      }

      .st15 {
        fill: url(#linear-gradient);
      }
    </style>
    <linearGradient id="linear-gradient" x1="272.09" y1="131.98" x2="389.89" y2="26.06" gradientTransform="translate(0 146) scale(1 -1)" gradientUnits="userSpaceOnUse">
      <stop offset="0" stop-color="#b18000"/>
      <stop offset="0" stop-color="#f5e48c"/>
      <stop offset=".23" stop-color="#be7f0e"/>
      <stop offset=".41" stop-color="#cca52c"/>
      <stop offset=".59" stop-color="#b58c10"/>
      <stop offset=".77" stop-color="#c39324"/>
      <stop offset="1" stop-color="#deba4c"/>
    </linearGradient>
    <linearGradient id="linear-gradient1" x1="282.51" y1="143.52" x2="400.23" y2="37.68" gradientTransform="translate(0 146) scale(1 -1)" gradientUnits="userSpaceOnUse">
      <stop offset="0" stop-color="#b18000"/>
      <stop offset="0" stop-color="#f5e48c"/>
      <stop offset=".23" stop-color="#be7f0e"/>
      <stop offset=".41" stop-color="#cca52c"/>
      <stop offset=".59" stop-color="#b58c10"/>
      <stop offset=".77" stop-color="#c39324"/>
      <stop offset="1" stop-color="#deba4c"/>
    </linearGradient>
    <linearGradient id="linear-gradient2" x1="293.13" y1="155.4" x2="410.94" y2="49.48" gradientTransform="translate(0 146) scale(1 -1)" gradientUnits="userSpaceOnUse">
      <stop offset="0" stop-color="#b18000"/>
      <stop offset="0" stop-color="#f5e48c"/>
      <stop offset=".23" stop-color="#be7f0e"/>
      <stop offset=".41" stop-color="#cca52c"/>
      <stop offset=".59" stop-color="#b58c10"/>
      <stop offset=".77" stop-color="#c39324"/>
      <stop offset="1" stop-color="#deba4c"/>
    </linearGradient>
    <linearGradient id="linear-gradient3" x1="307.64" y1="171.53" x2="425.43" y2="65.63" gradientTransform="translate(0 146) scale(1 -1)" gradientUnits="userSpaceOnUse">
      <stop offset="0" stop-color="#b18000"/>
      <stop offset="0" stop-color="#f5e48c"/>
      <stop offset=".23" stop-color="#be7f0e"/>
      <stop offset=".41" stop-color="#cca52c"/>
      <stop offset=".59" stop-color="#b58c10"/>
      <stop offset=".77" stop-color="#c39324"/>
      <stop offset="1" stop-color="#deba4c"/>
    </linearGradient>
    <linearGradient id="linear-gradient4" x1="324.79" y1="190.58" x2="442.57" y2="84.69" gradientTransform="translate(0 146) scale(1 -1)" gradientUnits="userSpaceOnUse">
      <stop offset="0" stop-color="#b18000"/>
      <stop offset="0" stop-color="#f5e48c"/>
      <stop offset=".23" stop-color="#be7f0e"/>
      <stop offset=".41" stop-color="#cca52c"/>
      <stop offset=".59" stop-color="#b58c10"/>
      <stop offset=".77" stop-color="#c39324"/>
      <stop offset="1" stop-color="#deba4c"/>
    </linearGradient>
    <linearGradient id="linear-gradient5" x1="334.7" y1="201.6" x2="452.48" y2="95.71" gradientTransform="translate(0 146) scale(1 -1)" gradientUnits="userSpaceOnUse">
      <stop offset="0" stop-color="#b18000"/>
      <stop offset="0" stop-color="#f5e48c"/>
      <stop offset=".23" stop-color="#be7f0e"/>
      <stop offset=".41" stop-color="#cca52c"/>
      <stop offset=".59" stop-color="#b58c10"/>
      <stop offset=".77" stop-color="#c39324"/>
      <stop offset="1" stop-color="#deba4c"/>
    </linearGradient>
    <linearGradient id="linear-gradient6" x1="348.92" y1="217.44" x2="466.71" y2="111.54" gradientTransform="translate(0 146) scale(1 -1)" gradientUnits="userSpaceOnUse">
      <stop offset="0" stop-color="#b18000"/>
      <stop offset="0" stop-color="#f5e48c"/>
      <stop offset=".23" stop-color="#be7f0e"/>
      <stop offset=".41" stop-color="#cca52c"/>
      <stop offset=".59" stop-color="#b58c10"/>
      <stop offset=".77" stop-color="#c39324"/>
      <stop offset="1" stop-color="#deba4c"/>
    </linearGradient>
    <linearGradient id="linear-gradient7" x1="282.35" y1="122.68" x2="306.72" y2="100.78" gradientTransform="translate(0 146) scale(1 -1)" gradientUnits="userSpaceOnUse">
      <stop offset="0" stop-color="#b18000"/>
      <stop offset="0" stop-color="#f5e48c"/>
      <stop offset=".23" stop-color="#be7f0e"/>
      <stop offset=".41" stop-color="#cca52c"/>
      <stop offset=".59" stop-color="#b58c10"/>
      <stop offset=".77" stop-color="#c39324"/>
      <stop offset="1" stop-color="#deba4c"/>
    </linearGradient>
    <linearGradient id="linear-gradient8" x1="313.78" y1="115.49" x2="332.68" y2="98.5" gradientTransform="translate(0 146) scale(1 -1)" gradientUnits="userSpaceOnUse">
      <stop offset="0" stop-color="#b18000"/>
      <stop offset="0" stop-color="#f5e48c"/>
      <stop offset=".23" stop-color="#be7f0e"/>
      <stop offset=".41" stop-color="#cca52c"/>
      <stop offset=".59" stop-color="#b58c10"/>
      <stop offset=".77" stop-color="#c39324"/>
      <stop offset="1" stop-color="#deba4c"/>
    </linearGradient>
    <linearGradient id="linear-gradient9" x1="339.45" y1="113.76" x2="357.79" y2="97.28" gradientTransform="translate(0 146) scale(1 -1)" gradientUnits="userSpaceOnUse">
      <stop offset="0" stop-color="#b18000"/>
      <stop offset="0" stop-color="#f5e48c"/>
      <stop offset=".23" stop-color="#be7f0e"/>
      <stop offset=".41" stop-color="#cca52c"/>
      <stop offset=".59" stop-color="#b58c10"/>
      <stop offset=".77" stop-color="#c39324"/>
      <stop offset="1" stop-color="#deba4c"/>
    </linearGradient>
    <linearGradient id="linear-gradient10" x1="364.99" y1="119.82" x2="402.06" y2="86.5" gradientTransform="translate(0 146) scale(1 -1)" gradientUnits="userSpaceOnUse">
      <stop offset="0" stop-color="#b18000"/>
      <stop offset="0" stop-color="#f5e48c"/>
      <stop offset=".23" stop-color="#be7f0e"/>
      <stop offset=".41" stop-color="#cca52c"/>
      <stop offset=".59" stop-color="#b58c10"/>
      <stop offset=".77" stop-color="#c39324"/>
      <stop offset="1" stop-color="#deba4c"/>
    </linearGradient>
    <linearGradient id="linear-gradient11" x1="404.09" y1="119.15" x2="427.24" y2="98.34" gradientTransform="translate(0 146) scale(1 -1)" gradientUnits="userSpaceOnUse">
      <stop offset="0" stop-color="#b18000"/>
      <stop offset="0" stop-color="#f5e48c"/>
      <stop offset=".23" stop-color="#be7f0e"/>
      <stop offset=".41" stop-color="#cca52c"/>
      <stop offset=".59" stop-color="#b58c10"/>
      <stop offset=".77" stop-color="#c39324"/>
      <stop offset="1" stop-color="#deba4c"/>
    </linearGradient>
    <linearGradient id="linear-gradient12" x1="425.22" y1="120.34" x2="454.15" y2="94.33" gradientTransform="translate(0 146) scale(1 -1)" gradientUnits="userSpaceOnUse">
      <stop offset="0" stop-color="#b18000"/>
      <stop offset="0" stop-color="#f5e48c"/>
      <stop offset=".23" stop-color="#be7f0e"/>
      <stop offset=".41" stop-color="#cca52c"/>
      <stop offset=".59" stop-color="#b58c10"/>
      <stop offset=".77" stop-color="#c39324"/>
      <stop offset="1" stop-color="#deba4c"/>
    </linearGradient>
    <linearGradient id="linear-gradient13" x1="457.33" y1="119.81" x2="494.39" y2="86.48" gradientTransform="translate(0 146) scale(1 -1)" gradientUnits="userSpaceOnUse">
      <stop offset="0" stop-color="#b18000"/>
      <stop offset="0" stop-color="#f5e48c"/>
      <stop offset=".23" stop-color="#be7f0e"/>
      <stop offset=".41" stop-color="#cca52c"/>
      <stop offset=".59" stop-color="#b58c10"/>
      <stop offset=".77" stop-color="#c39324"/>
      <stop offset="1" stop-color="#deba4c"/>
    </linearGradient>
  </defs>
  <g>
    <g>
      <g>
        <path class="st15" d="M309.49,22.33c-2.42-1.97-5.73-2.95-9.95-2.95h-13.17v.23c1.31,0,2.18.55,2.63,1.65.43,1.11.66,2.49.66,4.17v20.72c0,1.7-.23,3.08-.66,4.17-.45,1.11-1.32,1.65-2.63,1.65v.23h13.6v-.23c-1.32,0-2.18-.54-2.63-1.65-.43-1.09-.64-2.47-.64-4.17v-2.99h3.74c2.47,0,4.65-.5,6.57-1.47,1.9-.97,3.4-2.38,4.47-4.24s1.61-4.04,1.61-6.59c0-3.72-1.2-6.55-3.6-8.54h0ZM303.61,39.1c-1.32,2.06-3.22,3.1-5.69,3.11h-1.22v-21.89h1.15c2.36,0,4.22.93,5.64,2.79,1.4,1.84,2.11,4.44,2.11,7.75s-.66,6.19-1.99,8.23h0Z"/>
        <path class="st2" d="M328.93,30.76c-2.13,1.32-3.63,3.2-4.58,5.64v-7.64h-.23c-.63.84-1.47,1.45-2.56,1.84-1.07.36-2.49.55-4.24.55h-3.27v.23c1.31,0,2.18.55,2.61,1.65.45,1.09.66,2.47.66,4.17v8.95c0,1.7-.21,3.08-.66,4.17-.43,1.11-1.31,1.65-2.61,1.65v.23h13.58v-.23c-1.31,0-2.18-.54-2.61-1.65-.45-1.09-.66-2.47-.66-4.17v-4.49c0-2.51.38-4.28,1.15-5.3.77-1.04,2.11-1.54,4.01-1.54.7,0,1.61.05,2.77.23l3.19-6.3c-2.25,0-4.44.66-6.53,2h-.02Z"/>
        <path class="st0" d="M359.51,44.27c-.91.95-1.93,1.66-3.1,2.13-1.16.5-2.36.73-3.61.73-2.09,0-4.01-.66-5.74-1.97-1.74-1.31-2.92-3.15-3.58-5.53-.36-1.31-.48-2.68-.43-4.13h16.27l-.36-.93c-.98-1.93-2.36-3.47-4.19-4.6-1.81-1.13-3.9-1.68-6.28-1.68-2.22,0-4.22.54-5.99,1.65-1.79,1.09-3.17,2.58-4.15,4.47-.98,1.9-1.47,3.95-1.47,6.21s.5,4.21,1.5,6.05c1.02,1.84,2.42,3.31,4.19,4.38,1.75,1.07,3.74,1.61,5.92,1.61,2.79,0,5.17-.75,7.18-2.27,2-1.5,3.35-3.54,4.08-6.12h-.24ZM344.62,30.67c.77-.98,1.83-1.49,3.15-1.49,1.07,0,1.9.21,2.49.68.57.45.97,1.06,1.23,1.79.25.75.45,1.72.61,2.92h-8.95c.21-1.59.7-2.88,1.47-3.9h0Z"/>
        <path class="st10" d="M405.16,50.32c-.43-1.09-.66-2.47-.66-4.17v-7.96c0-2.84-.52-5.21-1.61-7.09-1.07-1.88-2.9-2.81-5.49-2.81-2.17,0-4.06.77-5.69,2.33-1.61,1.56-2.83,3.51-3.65,5.87-.18-2.4-.84-4.37-1.95-5.89-1.09-1.54-2.81-2.31-5.12-2.31-2.13,0-4.01.77-5.64,2.27-1.63,1.52-2.85,3.44-3.65,5.74v-7.55h-.23c-.63.84-1.49,1.45-2.56,1.84-1.07.36-2.51.55-4.24.55h-3.29v.23c1.32,0,2.2.55,2.63,1.65.43,1.09.66,2.47.66,4.17v8.95c0,1.7-.23,3.08-.66,4.17-.43,1.11-1.31,1.65-2.63,1.65v.23h13.62v-.23c-1.32,0-2.2-.54-2.65-1.65-.43-1.09-.64-2.47-.64-4.17v-4.49c.04-1.79.3-3.44.84-4.94.54-1.52,1.23-2.74,2.13-3.63.89-.88,1.88-1.32,2.93-1.32s1.9.43,2.42,1.32c.5.86.82,1.91.91,3.15.09,1.23.14,2.97.14,5.23v4.69c0,1.7-.21,3.08-.66,4.17-.43,1.11-1.31,1.65-2.61,1.65v.23h13.58v-.23c-1.31,0-2.18-.54-2.61-1.65-.45-1.09-.66-2.47-.66-4.17v-4.49c.02-1.79.3-3.44.84-4.94.52-1.52,1.25-2.74,2.13-3.63.89-.88,1.88-1.32,2.93-1.32s1.9.43,2.42,1.32c.52.86.81,1.91.91,3.15.09,1.23.13,2.97.13,5.23v3.85c0,2.08.64,3.72,1.9,4.99,1.27,1.27,2.95,1.9,5.01,1.9h3.42v-.23c-1.31,0-2.2-.54-2.63-1.65h-.02Z"/>
        <path class="st8" d="M419.71,50.32c-.45-1.09-.66-2.47-.66-4.17v-17.39h-.25c-.61.84-1.47,1.45-2.54,1.84-1.09.36-2.49.55-4.24.55h-3.29v.23c1.31,0,2.2.55,2.65,1.65.43,1.09.64,2.47.64,4.17v8.95c0,1.7-.21,3.08-.64,4.17-.45,1.11-1.34,1.65-2.65,1.65v.23h13.6v-.23c-1.31,0-2.18-.54-2.61-1.65h-.01ZM418.04,17.95c-.68-.66-1.57-1-2.7-1s-1.97.34-2.65,1c-.68.68-1,1.56-1,2.65s.32,2.04,1,2.7c.68.68,1.56,1.02,2.65,1.02s2.02-.34,2.7-1.02c.66-.66,1-1.57,1-2.7s-.34-1.97-1-2.65Z"/>
        <path class="st9" d="M450.16,30.63c.45-1.09,1.32-1.65,2.63-1.65v-.23h-13.58v.23c1.31,0,2.18.55,2.61,1.65.43,1.09.66,2.49.66,4.19v4.49c0,1.59-.23,3.15-.66,4.67-.43,1.56-1.07,2.79-1.9,3.76-.84.97-1.79,1.45-2.88,1.45s-1.9-.43-2.42-1.31c-.52-.88-.82-1.93-.91-3.15-.11-1.25-.14-2.99-.14-5.24v-4.67c0-1.7.21-3.1.66-4.19.43-1.09,1.31-1.65,2.61-1.65v-.23h-13.58v.23c1.31,0,2.18.55,2.61,1.65.45,1.09.66,2.49.66,4.19v7.95c0,2.85.54,5.21,1.61,7.1,1.07,1.86,2.92,2.79,5.51,2.79,2.09,0,3.9-.72,5.42-2.15,1.5-1.45,2.65-3.29,3.4-5.55v.39c0,2.06.63,3.72,1.9,4.99,1.27,1.25,2.93,1.9,4.99,1.9h3.42v-.25c-1.31,0-2.18-.54-2.63-1.63-.43-1.09-.64-2.49-.64-4.17v-11.38c0-1.7.21-3.1.64-4.19h.01Z"/>
        <path class="st13" d="M497.51,50.32c-.43-1.09-.66-2.47-.66-4.17v-7.96c0-2.84-.52-5.21-1.61-7.09-1.07-1.88-2.92-2.81-5.51-2.81-2.15,0-4.04.77-5.67,2.33-1.61,1.56-2.83,3.51-3.65,5.87-.18-2.4-.84-4.37-1.95-5.89-1.09-1.54-2.81-2.31-5.12-2.31-2.15,0-4.01.77-5.64,2.27-1.63,1.52-2.85,3.44-3.65,5.74v-7.55h-.23c-.63.84-1.49,1.45-2.56,1.84-1.07.36-2.51.55-4.24.55h-3.29v.23c1.32,0,2.2.55,2.63,1.65.43,1.09.66,2.47.66,4.17v8.95c0,1.7-.23,3.08-.66,4.17-.43,1.11-1.31,1.65-2.63,1.65v.23h13.62v-.23c-1.32,0-2.2-.54-2.65-1.65-.43-1.09-.64-2.47-.64-4.17v-4.49c.02-1.79.3-3.44.84-4.94.54-1.52,1.23-2.74,2.13-3.63.89-.88,1.88-1.32,2.93-1.32s1.9.43,2.42,1.32c.5.86.82,1.91.89,3.15.11,1.23.16,2.97.16,5.23v4.69c0,1.7-.21,3.08-.66,4.17-.43,1.11-1.31,1.65-2.63,1.65v.23h13.6v-.23c-1.31,0-2.18-.54-2.61-1.65-.45-1.09-.66-2.47-.66-4.17v-4.49c.02-1.79.3-3.44.84-4.94.52-1.52,1.25-2.74,2.13-3.63.89-.88,1.88-1.32,2.93-1.32s1.9.43,2.42,1.32c.52.86.81,1.91.91,3.15.09,1.23.13,2.97.13,5.23v3.85c0,2.08.64,3.72,1.9,4.99,1.27,1.27,2.95,1.9,5.01,1.9h3.42v-.23c-1.31,0-2.2-.54-2.63-1.65h-.02Z"/>
      </g>
      <g>
        <path class="st12" d="M309.49,22.33c-2.42-1.97-5.73-2.95-9.95-2.95h-13.17v.23c1.31,0,2.18.55,2.63,1.65.43,1.11.66,2.49.66,4.17v20.72c0,1.7-.23,3.08-.66,4.17-.45,1.11-1.32,1.65-2.63,1.65v.23h13.6v-.23c-1.32,0-2.18-.54-2.63-1.65-.43-1.09-.64-2.47-.64-4.17v-2.99h3.74c2.47,0,4.65-.5,6.57-1.47,1.9-.97,3.4-2.38,4.47-4.24s1.61-4.04,1.61-6.59c0-3.72-1.2-6.55-3.6-8.54h0ZM303.61,39.1c-1.32,2.06-3.22,3.1-5.69,3.11h-1.22v-21.89h1.15c2.36,0,4.22.93,5.64,2.79,1.4,1.84,2.11,4.44,2.11,7.75s-.66,6.19-1.99,8.23h0Z"/>
        <path class="st4" d="M328.06,52.64h-14.46v-1.11h.44c1.14,0,1.84-.43,2.2-1.36.43-1.04.63-2.35.63-4.01v-8.95c0-1.66-.21-2.97-.63-4-.36-.93-1.08-1.37-2.21-1.37h-.44v-1.11h3.71c1.67,0,3.05-.18,4.1-.53,1-.36,1.77-.91,2.34-1.69l.13-.18h.89v6.13c.96-1.69,2.25-3.03,3.91-4.06,2.14-1.37,4.42-2.07,6.77-2.07h.71l-3.65,7.22-.32-.05c-.99-.15-1.9-.23-2.71-.23-1.78,0-2.98.45-3.66,1.36-.7.93-1.06,2.63-1.06,5.04v4.49c0,1.66.21,2.97.63,4,.36.94,1.06,1.37,2.21,1.37h.44v1.11h.03ZM316.15,51.76h9.37c-.4-.32-.71-.74-.91-1.28-.47-1.13-.69-2.55-.69-4.33v-4.49c0-2.64.4-4.46,1.23-5.56,1.16-1.56,3.54-1.99,6.88-1.52l2.71-5.35c-1.92.13-3.79.77-5.57,1.91h0c-2.04,1.27-3.48,3.04-4.4,5.43l-.85,2.18v-9.07c-.6.59-1.32,1.03-2.2,1.35-1.16.39-2.63.58-4.39.58h-1.18c.4.32.71.74.92,1.28.47,1.14.69,2.56.69,4.33v8.95c0,1.78-.23,3.19-.7,4.34-.21.53-.51.96-.91,1.27v-.02Z"/>
        <path class="st11" d="M359.51,44.27c-.91.95-1.93,1.66-3.1,2.13-1.16.5-2.36.73-3.61.73-2.09,0-4.01-.66-5.74-1.97-1.74-1.31-2.92-3.15-3.58-5.53-.36-1.31-.48-2.68-.43-4.13h16.27l-.36-.93c-.98-1.93-2.36-3.47-4.19-4.6-1.81-1.13-3.9-1.68-6.28-1.68-2.22,0-4.22.54-5.99,1.65-1.79,1.09-3.17,2.58-4.15,4.47-.98,1.9-1.47,3.95-1.47,6.21s.5,4.21,1.5,6.05c1.02,1.84,2.42,3.31,4.19,4.38,1.75,1.07,3.74,1.61,5.92,1.61,2.79,0,5.17-.75,7.18-2.27,2-1.5,3.35-3.54,4.08-6.12h-.24ZM344.62,30.67c.77-.98,1.83-1.49,3.15-1.49,1.07,0,1.9.21,2.49.68.57.45.97,1.06,1.23,1.79.25.75.45,1.72.61,2.92h-8.95c.21-1.59.7-2.88,1.47-3.9h0Z"/>
        <path class="st1" d="M408.23,52.64h-3.86c-2.19,0-3.98-.68-5.32-2.03-1.35-1.36-2.03-3.15-2.03-5.3v-3.85c0-2.38-.04-4.03-.12-5.19-.11-1.21-.38-2.18-.85-2.96-.44-.76-1.09-1.11-2.04-1.11s-1.82.4-2.63,1.2c-.85.87-1.54,2.04-2.02,3.46-.53,1.47-.8,3.08-.82,4.8v4.49c0,1.66.21,2.97.63,4,.36.94,1.06,1.37,2.21,1.37h.44v1.11h-14.46v-1.11h.44c1.14,0,1.84-.43,2.2-1.36.43-1.04.63-2.35.63-4.01v-4.69c0-2.15-.05-3.9-.14-5.19-.08-1.13-.37-2.13-.85-2.96-.44-.76-1.08-1.11-2.04-1.11s-1.82.4-2.63,1.2c-.83.83-1.49,1.97-2.02,3.46-.51,1.44-.78,3.01-.82,4.8v4.48c0,1.65.2,2.96.61,4.01.38.93,1.09,1.37,2.24,1.37h.44v1.11h-14.5v-1.11h.44c1.15,0,1.86-.43,2.22-1.36.42-1.07.63-2.42.63-4.01v-8.95c0-1.59-.21-2.94-.63-4.01-.36-.92-1.09-1.37-2.22-1.37h-.44v-1.11h3.73c1.64,0,3.06-.18,4.1-.53.99-.36,1.78-.93,2.34-1.69l.13-.18h.89v5.83c.76-1.5,1.74-2.81,2.91-3.91,1.72-1.59,3.72-2.39,5.94-2.39,2.46,0,4.3.84,5.48,2.49.88,1.21,1.49,2.69,1.81,4.42.8-1.73,1.84-3.22,3.12-4.46,1.7-1.63,3.72-2.45,6-2.45,2.75,0,4.73,1.02,5.87,3.03,1.12,1.93,1.67,4.32,1.67,7.3v7.96c0,1.59.21,2.94.63,4.01h0c.36.92,1.08,1.37,2.22,1.37h.44v1.11l.03.02ZM394.01,31.32c1.26,0,2.2.52,2.8,1.54.53.88.85,1.98.97,3.33.09,1.19.13,2.86.13,5.26v3.85c0,1.94.58,3.47,1.77,4.68,1.17,1.17,2.75,1.77,4.7,1.77h1.3c-.4-.32-.71-.74-.92-1.28-.46-1.17-.69-2.62-.69-4.33v-7.96c0-2.82-.51-5.07-1.55-6.87-1-1.74-2.67-2.59-5.11-2.59-2.07,0-3.84.72-5.39,2.2-1.56,1.5-2.75,3.42-3.54,5.7l-.7,2-.16-2.11c-.17-2.29-.8-4.2-1.87-5.66-1-1.41-2.6-2.13-4.76-2.13-1.99,0-3.79.72-5.34,2.15-1.57,1.47-2.76,3.34-3.53,5.57l-.85,2.45v-9.25c-.6.58-1.33,1.04-2.2,1.35-1.16.39-2.63.58-4.39.58h-1.18c.4.32.71.74.93,1.28.46,1.17.69,2.62.69,4.33v8.95c0,1.71-.23,3.16-.69,4.33-.21.54-.51.96-.9,1.28h9.35c-.4-.31-.7-.74-.92-1.27-.46-1.16-.68-2.57-.68-4.33v-4.49c.04-1.9.32-3.56.87-5.09.57-1.62,1.3-2.86,2.23-3.8.99-.96,2.08-1.45,3.25-1.45,1.26,0,2.2.52,2.8,1.54.55.95.88,2.07.97,3.34.1,1.32.14,3.09.14,5.26v4.69c0,1.78-.23,3.19-.69,4.34-.21.53-.51.96-.91,1.27h9.37c-.4-.32-.71-.74-.91-1.28-.46-1.13-.69-2.55-.69-4.33v-4.49c.02-1.82.31-3.53.87-5.09.52-1.54,1.28-2.82,2.23-3.79.99-.97,2.08-1.46,3.25-1.46h-.05Z"/>
        <path class="st5" d="M422.76,52.64h-14.48v-1.11h.44c1.14,0,1.87-.45,2.24-1.37.41-1.05.61-2.36.61-4.01v-8.95c0-1.65-.2-2.96-.61-4.01-.38-.92-1.11-1.37-2.24-1.37h-.44v-1.11h3.73c1.65,0,3.03-.18,4.1-.53.99-.36,1.78-.93,2.32-1.68l.13-.18h.91v17.83c0,1.66.21,2.97.63,4h0c.36.94,1.06,1.37,2.2,1.37h.44v1.11h.02ZM410.84,51.76h9.36c-.39-.31-.69-.74-.9-1.28-.47-1.14-.69-2.56-.69-4.33v-16.5c-.59.58-1.32,1.04-2.2,1.36-1.18.39-2.65.58-4.39.58h-1.18c.41.31.72.74.94,1.27.46,1.16.68,2.58.68,4.34v8.95c0,1.76-.22,3.18-.68,4.33-.22.53-.53.96-.93,1.28h0ZM415.34,24.76c-1.2,0-2.2-.39-2.96-1.15-.75-.73-1.13-1.74-1.13-3.01s.38-2.21,1.13-2.96c.77-.75,1.77-1.13,2.96-1.13s2.24.38,3.01,1.13h0c.75.78,1.13,1.77,1.13,2.96s-.38,2.26-1.13,3.01-1.78,1.15-3.01,1.15ZM415.34,17.38c-.97,0-1.74.29-2.34.88-.58.58-.87,1.35-.87,2.33s.29,1.83.87,2.39c.6.6,1.37.9,2.34.9s1.79-.29,2.39-.89c.58-.58.87-1.38.87-2.39s-.29-1.73-.87-2.34c-.61-.59-1.39-.87-2.39-.87h0Z"/>
        <path class="st7" d="M433.67,53.1c-2.76,0-4.74-1.01-5.89-3.01-1.11-1.96-1.67-4.42-1.67-7.32v-7.95c0-1.65-.21-3-.63-4.02-.36-.93-1.08-1.37-2.21-1.37h-.44v-1.11h14.46v1.11h-.44c-1.12,0-1.84.45-2.2,1.37-.42,1.02-.63,2.38-.63,4.03v4.67c0,2.47.04,4.07.14,5.2.08,1.16.37,2.15.85,2.96.43.73,1.1,1.09,2.04,1.09s1.79-.42,2.55-1.3c.8-.94,1.41-2.15,1.8-3.59.43-1.52.65-3.05.65-4.55v-4.49c0-1.61-.21-2.96-.63-4.03-.36-.92-1.08-1.37-2.2-1.37h-.44v-1.11h14.46v1.11h-.44c-1.12,0-1.84.45-2.22,1.37-.41,1.04-.61,2.39-.61,4.02v11.38c0,1.62.21,2.97.61,4.01.38.92,1.08,1.35,2.22,1.35h.44v1.13h-3.86c-2.16,0-3.94-.68-5.3-2.02-1.01-1.01-1.64-2.26-1.9-3.74-.72,1.51-1.65,2.82-2.78,3.91-1.6,1.51-3.53,2.27-5.73,2.27h0ZM425.37,29.2c.4.32.71.74.92,1.28.47,1.14.69,2.56.69,4.35v7.95c0,2.75.52,5.07,1.55,6.89,1,1.73,2.67,2.57,5.13,2.57,1.97,0,3.69-.68,5.12-2.03,1.46-1.41,2.57-3.22,3.28-5.37l.86-2.57v3.1c0,1.96.58,3.49,1.77,4.68,1.19,1.17,2.76,1.77,4.68,1.77h1.31c-.4-.31-.71-.73-.93-1.27-.45-1.15-.68-2.6-.68-4.34v-11.38c0-1.75.23-3.21.68-4.35h0c.22-.54.53-.96.93-1.28h-9.38c.4.32.71.74.92,1.28.46,1.17.69,2.63.69,4.35v4.49c0,1.58-.23,3.19-.68,4.79-.43,1.56-1.1,2.89-1.99,3.92-.93,1.06-2.01,1.6-3.22,1.6s-2.2-.51-2.79-1.52c-.55-.93-.88-2.05-.97-3.34-.1-1.16-.14-2.78-.14-5.28v-4.67c0-1.79.23-3.21.69-4.35.21-.53.52-.96.92-1.27h-9.38.02Z"/>
        <path class="st14" d="M500.58,52.64h-3.86c-2.19,0-3.98-.68-5.32-2.03-1.35-1.36-2.03-3.15-2.03-5.3v-3.85c0-2.37-.04-4.02-.12-5.19-.11-1.21-.38-2.18-.85-2.95-.44-.76-1.09-1.11-2.04-1.11s-1.82.4-2.63,1.2c-.85.87-1.54,2.04-2.02,3.46-.53,1.47-.8,3.09-.82,4.8v4.49c0,1.66.21,2.97.63,4,.36.94,1.06,1.37,2.21,1.37h.44v1.11h-14.48v-1.11h.44c1.15,0,1.86-.43,2.22-1.36.43-1.04.63-2.35.63-4.01v-4.69c0-2.23-.05-3.97-.16-5.19-.07-1.13-.35-2.13-.84-2.97-.44-.76-1.08-1.11-2.04-1.11s-1.82.4-2.63,1.2c-.83.83-1.49,1.97-2.02,3.46-.52,1.47-.8,3.08-.82,4.8v4.49c0,1.65.2,2.96.61,4.01.38.93,1.09,1.37,2.24,1.37h.44v1.11h-14.5v-1.11h.44c1.15,0,1.86-.43,2.22-1.36.42-1.07.63-2.42.63-4.01v-8.95c0-1.59-.21-2.94-.63-4.01-.36-.92-1.09-1.37-2.22-1.37h-.44v-1.11h3.73c1.64,0,3.06-.18,4.1-.53.99-.36,1.78-.93,2.34-1.69l.13-.18h.89v5.83c.76-1.5,1.74-2.81,2.91-3.91,1.72-1.59,3.72-2.39,5.94-2.39,2.46,0,4.3.84,5.48,2.49.88,1.21,1.49,2.7,1.81,4.42.8-1.73,1.84-3.22,3.12-4.46,1.7-1.63,3.71-2.45,5.98-2.45,2.76,0,4.74,1.02,5.89,3.03,1.12,1.93,1.67,4.32,1.67,7.3v7.96c0,1.59.21,2.94.63,4.01h0c.36.92,1.08,1.37,2.22,1.37h.44v1.11h.04ZM486.37,31.32c1.26,0,2.2.52,2.8,1.54.53.88.85,1.97.97,3.33.09,1.2.13,2.87.13,5.26v3.85c0,1.94.58,3.47,1.77,4.68,1.17,1.17,2.75,1.77,4.7,1.77h1.3c-.4-.32-.71-.74-.92-1.28-.46-1.17-.69-2.62-.69-4.33v-7.96c0-2.82-.51-5.07-1.55-6.87-1-1.74-2.67-2.59-5.13-2.59-2.03,0-3.84.74-5.37,2.2-1.56,1.5-2.75,3.42-3.54,5.7l-.7,2-.16-2.11c-.17-2.29-.8-4.2-1.87-5.66-1-1.41-2.6-2.13-4.76-2.13-2.02,0-3.77.71-5.34,2.15-1.57,1.47-2.76,3.34-3.53,5.57l-.85,2.45v-9.25c-.6.58-1.33,1.04-2.2,1.35-1.16.39-2.63.58-4.39.58h-1.18c.4.32.71.74.93,1.28.46,1.17.69,2.62.69,4.33v8.95c0,1.71-.23,3.16-.69,4.33-.21.54-.51.96-.9,1.28h9.35c-.4-.31-.7-.74-.92-1.27-.46-1.16-.68-2.57-.68-4.33v-4.49c.02-1.82.31-3.53.87-5.09.57-1.62,1.3-2.87,2.23-3.8.99-.96,2.08-1.45,3.25-1.45,1.26,0,2.2.52,2.8,1.54.56.96.88,2.08.95,3.34.11,1.24.16,2.96.16,5.25v4.69c0,1.78-.23,3.19-.69,4.34-.21.54-.51.96-.9,1.27h9.34c-.39-.31-.69-.74-.9-1.28-.46-1.13-.69-2.55-.69-4.33v-4.49c.02-1.82.31-3.53.87-5.09.53-1.54,1.28-2.82,2.23-3.79.99-.97,2.08-1.46,3.25-1.46l-.04.02Z"/>
      </g>
    </g>
    <g>
      <path class="st6" d="M288.46,134.83V62.24h14.6v57.78l44.32.1v14.71h-58.92Z"/>
      <path class="st6" d="M409.93,98.37v36.35h-14.6v-4.97c-2.28,3-6.42,4.76-10.04,4.76h-11.49c-12.74,0-22.16-5.38-22.16-18.85v-3c0-13.36,10.56-19.16,22.89-19.16h10.77c3.52,0,7.87,1.45,9.94,4.56,0-7.04-2.8-8.8-9.94-8.8h-28.48v-12.53c21.02,0,10.46-.21,31.58-.21,10.98,0,21.23,8.6,21.44,19.26l.1,2.59h-.01ZM395.33,116.19c0-3.73-.1-.41-.1-4.04-1.14-4.35-5.8-6.42-9.32-6.42h-6.01c-7.56,0-12.95.31-12.95,7.77v.21c0,7.56,4.76,7.46,12.95,7.46h6.01c3.62,0,8.18-.21,9.42-4.97h0Z"/>
      <path class="st6" d="M463.37,76.11h14.6v58.51h-14.6v-5.69c-1.45,2.59-5.9,5.49-10.05,5.49h-9.32c-13.36,0-24.34-10.98-24.34-24.33v-33.86h14.5c0,10.15.1,21.43.1,31.89,0,7.56,6.11,13.67,13.67,13.67h6.01c3.62,0,9.01-2.9,9.42-7.15v-38.52h.01Z"/>
      <path class="st6" d="M504.08,117.74h.1v14.7h-.1v2.38h-14.5v-58.4h14.5v5.59c1.55-2.49,6.01-5.49,10.05-5.49h9.32c13.46,0,24.44,10.98,24.44,24.34v33.86h-14.6v-31.89c0-7.46-6.21-13.67-13.67-13.67h-6.01c-3.73,0-9.11,2.9-9.53,7.25v21.33h0Z"/>
      <path class="st6" d="M599.97,62.23h14.6v72.49h-14.6v-4.25c-2.38,2.59-6.42,3.93-10.04,3.93h-9.32c-13.36,0-24.33-10.87-24.33-24.33v-8.91c0-13.46,10.98-24.34,24.33-24.34h9.32c3.93,0,8.18,1.76,10.04,3.94v-18.54h0ZM599.97,92.99c-1.35-3.31-5.8-3.52-9.42-3.52h-5.28c-7.56,0-13.67,6.11-13.67,13.67v4.97c0,7.56,6.11,13.67,13.67,13.67h5.28c3.62,0,8.28-.72,9.42-3.83v-24.96h0Z"/>
      <path class="st6" d="M640.57,117.64h.1c0,5.59-.1,11.18-.1,16.78h-14.5v-58.09h14.5v5.7c1.55-2.59,6.01-5.49,10.04-5.49,7.15,0,13.77-.72,20.4,2.69l-5.07,11.7c-1.97-.62-6.11-1.14-10.46-1.14-7.25,0-15.12,1.45-14.91,6.52v21.33h0Z"/>
      <path class="st6" d="M721.87,131.2c-3.52,2.07-7.77,3.31-12.12,3.31h-8.8c-13.36,0-24.33-10.98-24.33-24.34v-33.86h14.5c0,10.15.1,21.44.1,31.89,0,7.46,6.11,13.67,13.67,13.67h.93c7.46,0,13.67-6.21,13.67-13.67v-31.89h14.6v33.86c0,7.15-3.11,13.57-8.08,18.02,3.42.1,7.97,6.21,8.28,14.08,0,10.15-9.01,10.25-17.5,10.25h-26.61v-12.84h29.72c8.08,0,8.08-8.28,1.97-8.49h0Z"/>
    </g>
    <g>
      <path class="st3" d="M585.39,162.71h17.1v5.04h-16.7v7.9c0-1.75,1.5-2.93,3.4-2.93,2.58-.04,4.22,0,7.83,0v5.01h-11.23v4.97h16.7v5.01c-8.33,0-13.81.04-22.1.04v-25.04h5.01-.01Z"/>
      <path class="st3" d="M610.15,167.57l3.61,5.4,3.61-5.4h6.19l-6.65,10.12,6.65,9.91h-6.44l-3.36-5.11-3.33,5.11h-6.44l6.62-9.91-6.62-10.12h6.16Z"/>
      <path class="st3" d="M631.04,194.11h-5.01v-26.43h5.01v.82c1.07-.47,2.25-.75,3.47-.75h3.22c4.65,0,8.44,3.79,8.44,8.44v3.08c0,4.61-3.79,8.41-8.44,8.41h-3.22c-1.22,0-2.4-.25-3.47-.75v7.19h0ZM631.04,181.99c.86.82,2,1.32,3.29,1.32h1.82c2.58,0,4.72-2.11,4.72-4.72v-1.72c0-2.61-2.15-4.72-4.72-4.72h-1.82c-1.29,0-2.43.5-3.29,1.32v8.51h0Z"/>
      <path class="st3" d="M654.4,181.85h.04c0,1.93-.04,3.86-.04,5.79h-5.01v-20.06h5.01v1.97c.54-.89,2.07-1.9,3.47-1.9,2.47,0,4.76-.25,7.05.93l-1.75,4.04c-.68-.21-2.11-.39-3.61-.39-2.5,0-5.22.5-5.15,2.25v7.37h0Z"/>
      <path class="st3" d="M685.62,177.77v.93h-15.02c.04,2.58,1.5,4.15,4.08,4.15h1.82c2.04,0,3.47-.89,3.97-2.58h5.08c-.46,4.18-4.04,7.48-8.37,7.48h-3.22c-4.61,0-8.41-3.79-8.41-8.41v-3.11c0-4.61,3.79-8.41,8.41-8.41h3.22c6.33,0,8.44,4.86,8.44,9.94h0ZM680.65,175.26c-.57-1.57-1.97-2.58-3.9-2.58h-2.08c-2,0-3.33.97-3.86,2.58h9.84Z"/>
      <path class="st3" d="M705.51,175.77c6.4.11,6.08,12.34-1.86,11.87h-14.24v-5.04h13.98c1.4.07,1.93-.61,1.97-1.25,0-.86-.75-1.32-2.22-1.29h-2.07c-2.33.07-5.87,0-8.19-.21-6.97-.14-6.62-12.48,1.86-12.12,3.22,0,11.84-.04,13.81.04v4.86h-13.66c-.93-.04-1.75.25-1.72,1.29,0,1.04.82,1.43,1.9,1.5-.04,0,7.01.32,10.44.36h0Z"/>
      <path class="st3" d="M729.84,175.77c6.4.11,6.08,12.34-1.86,11.87h-14.24v-5.04h13.98c1.4.07,1.93-.61,1.97-1.25,0-.86-.75-1.32-2.22-1.29h-2.07c-2.33.07-5.87,0-8.19-.21-6.97-.14-6.62-12.48,1.86-12.12,3.22,0,11.84-.04,13.81.04v4.86h-13.66c-.93-.04-1.75.25-1.72,1.29,0,1.04.82,1.43,1.9,1.5-.04,0,7.01.32,10.44.36h0Z"/>
    </g>
  </g>
  <g>
    <path class="st6" d="M287.23,148.95h4.96c3.02,0,4.31,1.33,4.31,2.87,0,1.72-1.41,2.59-3.07,2.59v.19c1.77,0,3.64.94,3.64,3.02,0,1.92-1.33,3.35-4.88,3.35h-4.96v-12.02ZM291.76,153.67c1.05,0,1.58-.68,1.58-1.38s-.53-1.38-1.58-1.38h-1.39v2.76h1.39ZM291.86,158.86c1.38,0,1.97-.81,1.97-1.63s-.57-1.61-1.97-1.61h-1.49v3.24h1.49Z"/>
    <path class="st6" d="M298.12,156.49c0-3.11,2.06-4.63,4.38-4.63,2.2,0,4.14,1.52,4.14,4.6,0,.15,0,.67-.02.82h-5.51c.28,1.41,1.27,1.98,2.4,1.98.81,0,1.73-.26,2.56-.7l-.03,1.87c-.82.42-1.92.68-3.11.68-2.26,0-4.8-1.29-4.8-4.63h-.01ZM304.18,155.65c-.06-1.36-.74-2.06-1.55-2.06-.73,0-1.36.62-1.53,2.06h3.08Z"/>
    <path class="st6" d="M306.73,152.05h3.16l1.27,4.91c.09.39.22,1.04.22,1.39h.19c0-.36.14-1.04.22-1.42l1.27-4.88h3.16l-3.05,8.29h-.02l-.23.68c-.57,1.53-1.84,3.16-4.15,3.16-.39,0-.81-.05-1.27-.16l-.02-1.86c.31.08.6.12.88.12,1.33,0,2.04-1.02,2.45-1.95h-1.02l-3.05-8.29h-.01Z"/>
    <path class="st6" d="M316.28,156.51c0-3.07,2.03-4.65,4.57-4.65s4.57,1.58,4.57,4.65-1.98,4.62-4.57,4.62-4.57-1.56-4.57-4.62ZM320.85,159.39c.87,0,1.53-.74,1.53-2.88s-.71-2.91-1.53-2.91-1.53.74-1.53,2.91.71,2.88,1.53,2.88Z"/>
    <path class="st6" d="M330.98,153.9c-.71,0-1.39.62-1.42,2.12v4.93h-2.91v-8.91h2.79v2.06h.19c0-.82.7-2.23,2.57-2.23,1.64,0,3,1.07,3,3.36v5.71h-2.91v-4.91c0-1.5-.57-2.14-1.3-2.14h-.01Z"/>
    <path class="st6" d="M336.32,156.55c0-3.08,1.86-4.69,3.59-4.69,1.05,0,1.87.46,2.4,1.24-.03-.33-.06-.64-.06-.99v-3.55h2.91v12.39h-2.79v-2.06h-.19c0,.81-.71,2.23-2.54,2.23-1.47,0-3.33-1.25-3.33-4.57h.01ZM340.82,159.09c.71,0,1.46-.64,1.47-2.11v-1.13c0-1.53-.67-2.18-1.46-2.18s-1.49.76-1.49,2.71.7,2.71,1.47,2.71h0Z"/>
    <path class="st6" d="M349.86,154.79c0-4.2,2.97-5.98,5.92-5.98,1.27,0,2.48.4,3.47.98l-.48,2.09c-.67-.46-1.6-.85-2.62-.85-1.89,0-2.9,1.52-2.9,3.87s1.01,3.98,3.08,3.98c.99,0,1.86-.31,2.97-.98v2.31c-.91.51-2.11.87-3.3.87-3.11,0-6.15-1.87-6.15-6.29h.01Z"/>
    <path class="st6" d="M360.45,148.56h2.91v12.39h-2.91v-12.39Z"/>
    <path class="st6" d="M364.58,156.49c0-3.11,2.06-4.63,4.38-4.63,2.2,0,4.14,1.52,4.14,4.6,0,.15,0,.67-.02.82h-5.51c.28,1.41,1.27,1.98,2.4,1.98.81,0,1.73-.26,2.56-.7l-.03,1.87c-.82.42-1.92.68-3.11.68-2.26,0-4.8-1.29-4.8-4.63h-.01ZM370.64,155.65c-.06-1.36-.74-2.06-1.55-2.06-.73,0-1.36.62-1.53,2.06h3.08Z"/>
    <path class="st6" d="M379.53,159.12h-.19c0,1.25-1.18,1.98-2.43,1.98-1.47,0-3.05-.98-3.05-2.9,0-2.04,1.72-3,3.35-3,.85,0,1.69.26,2.26.77v-.15c.02-1.72-1.05-2.2-2.2-2.2-.81,0-1.7.23-2.29.56l-.36-1.75c1.04-.39,2.29-.62,3.45-.62,2.21,0,4.26.82,4.26,3.66v5.48h-2.8v-1.83h0ZM377.95,159.06c.88,0,1.52-.51,1.52-1.07v-.31c0-.57-.62-1.07-1.49-1.07s-1.53.5-1.53,1.22c0,.68.62,1.22,1.5,1.22h0Z"/>
    <path class="st6" d="M388.07,153.9c-.71,0-1.39.62-1.42,2.12v4.93h-2.91v-8.91h2.79v2.06h.19c0-.82.7-2.23,2.57-2.23,1.64,0,3,1.07,3,3.36v5.71h-2.91v-4.91c0-1.5-.57-2.14-1.3-2.14h-.01Z"/>
    <path class="st6" d="M393.77,158.52h2.62l-1.15,4.35h-1.83l.36-4.35h0Z"/>
    <path class="st6" d="M401.06,148.95h7.6v2.08h-4.46v2.9h3.89v2.08h-3.89v4.96h-3.14v-12.02Z"/>
    <path class="st6" d="M414.42,159.12h-.19c0,1.25-1.18,1.98-2.43,1.98-1.47,0-3.05-.98-3.05-2.9,0-2.04,1.72-3,3.35-3,.85,0,1.69.26,2.26.77v-.15c.02-1.72-1.05-2.2-2.2-2.2-.81,0-1.7.23-2.29.56l-.36-1.75c1.04-.39,2.29-.62,3.45-.62,2.21,0,4.26.82,4.26,3.66v5.48h-2.8v-1.83h0ZM412.84,159.06c.88,0,1.52-.51,1.52-1.07v-.31c0-.57-.62-1.07-1.49-1.07s-1.53.5-1.53,1.22c0,.68.62,1.22,1.5,1.22h0Z"/>
    <path class="st6" d="M418.27,160.16l.36-1.84c.76.65,2.2,1.1,3.19,1.1.71,0,1.29-.23,1.29-.84,0-1.47-4.77-.46-4.77-3.92,0-2.03,1.84-2.83,3.89-2.83,1.05,0,2.14.23,2.99.6l-.36,1.75c-.5-.36-1.69-.71-2.57-.71-.7,0-1.25.23-1.25.76,0,1.39,4.88.31,4.88,3.9,0,2.12-1.87,2.96-3.95,2.96-1.32,0-2.68-.34-3.69-.93h0Z"/>
    <path class="st6" d="M427.3,157.68l-.02-3.9h-.93v-1.73h.93c.26-.29.39-.85.39-2.09h2.52v2.09h1.67v1.73h-1.67v3.38c0,1.35.56,1.84,1.35,1.84.29,0,.6-.08.9-.22v1.83c-.57.26-1.38.46-2.18.46-1.56,0-2.96-.99-2.96-3.39h0Z"/>
    <path class="st6" d="M432.92,156.49c0-3.11,2.06-4.63,4.38-4.63,2.2,0,4.13,1.52,4.13,4.6,0,.15,0,.67-.01.82h-5.51c.28,1.41,1.27,1.98,2.4,1.98.81,0,1.73-.26,2.56-.7l-.03,1.87c-.82.42-1.92.68-3.11.68-2.26,0-4.8-1.29-4.8-4.63h-.01ZM438.97,155.65c-.06-1.36-.74-2.06-1.55-2.06-.73,0-1.36.62-1.53,2.06h3.08Z"/>
    <path class="st6" d="M442.55,152.05h2.79v2.15h.19c.17-1.61,1.46-2.51,3.66-2.15l-.25,2.26c-1.61-.23-3.44.06-3.47,2.59v4.06h-2.91v-8.91h-.01Z"/>
    <path class="st6" d="M456.67,151.38h-3.44l-.02-2.43h10.04v2.43h-3.44v9.57h-3.14v-9.57h0Z"/>
    <path class="st6" d="M464.14,157.76v-5.71h2.91v4.91c0,1.5.57,2.12,1.3,2.12s1.39-.62,1.42-2.11v-4.92h2.91v8.91h-2.79v-2.06h-.19c0,.81-.7,2.23-2.57,2.23-1.64,0-3-1.07-3-3.36h.01Z"/>
    <path class="st6" d="M474.21,152.05h2.79v2.15h.19c.17-1.61,1.46-2.51,3.66-2.15l-.25,2.26c-1.61-.23-3.44.06-3.47,2.59v4.06h-2.91v-8.91h-.01Z"/>
    <path class="st6" d="M486.18,153.9c-.71,0-1.39.62-1.42,2.12v4.93h-2.91v-8.91h2.79v2.06h.19c0-.82.7-2.23,2.57-2.23,1.64,0,3,1.07,3,3.36v5.71h-2.91v-4.91c0-1.5-.57-2.14-1.3-2.14h-.01Z"/>
    <path class="st6" d="M497.12,159.12h-.19c0,1.25-1.18,1.98-2.43,1.98-1.47,0-3.05-.98-3.05-2.9,0-2.04,1.72-3,3.35-3,.85,0,1.69.26,2.26.77v-.15c.02-1.72-1.05-2.2-2.2-2.2-.8,0-1.7.23-2.29.56l-.36-1.75c1.04-.39,2.29-.62,3.45-.62,2.21,0,4.26.82,4.26,3.66v5.48h-2.8v-1.83h0ZM495.54,159.06c.88,0,1.52-.51,1.52-1.07v-.31c0-.57-.62-1.07-1.49-1.07s-1.53.5-1.53,1.22c0,.68.62,1.22,1.5,1.22h0Z"/>
    <path class="st6" d="M501.33,152.05h2.79v2.15h.19c.17-1.61,1.46-2.51,3.66-2.15l-.25,2.26c-1.61-.23-3.44.06-3.47,2.59v4.06h-2.91v-8.91h-.01Z"/>
    <path class="st6" d="M508.28,156.51c0-3.07,2.03-4.65,4.57-4.65s4.57,1.58,4.57,4.65-1.98,4.62-4.57,4.62-4.57-1.56-4.57-4.62ZM512.85,159.39c.87,0,1.53-.74,1.53-2.88s-.71-2.91-1.53-2.91-1.53.74-1.53,2.91.71,2.88,1.53,2.88Z"/>
    <path class="st6" d="M518.54,157.76v-5.71h2.91v4.91c0,1.5.57,2.12,1.3,2.12s1.39-.62,1.42-2.11v-4.92h2.91v8.91h-2.79v-2.06h-.19c0,.81-.7,2.23-2.57,2.23-1.64,0-3-1.07-3-3.36h.01Z"/>
    <path class="st6" d="M532.94,153.9c-.71,0-1.39.62-1.42,2.12v4.93h-2.91v-8.91h2.79v2.06h.19c0-.82.7-2.23,2.57-2.23,1.64,0,3,1.07,3,3.36v5.71h-2.91v-4.91c0-1.5-.57-2.14-1.3-2.14h-.01Z"/>
    <path class="st6" d="M538.28,156.55c0-3.08,1.86-4.69,3.59-4.69,1.05,0,1.87.46,2.4,1.24-.03-.33-.06-.64-.06-.99v-3.55h2.91v12.39h-2.79v-2.06h-.19c0,.81-.71,2.23-2.54,2.23-1.47,0-3.33-1.25-3.33-4.57h0ZM542.79,159.09c.71,0,1.46-.64,1.47-2.11v-1.13c0-1.53-.67-2.18-1.46-2.18s-1.49.76-1.49,2.71.7,2.71,1.47,2.71h.01Z"/>
  </g>
  <g>
    <path class="st6" d="M185.14,83.51c-.73,2.99-2.9,5.37-6.63,7.28-4.87,2.46-12.42,4.18-23.07,5.23-6.92.69-15.17,1.04-23.87,1.04-1.83,0-3.68-.02-5.56-.06-2.58-.04-5.19-.11-7.8-.22l-.31-.02c-.48-.02-.97-.04-1.46-.06-.16-.42-.32-.83-.48-1.25l-.27-.67-.03-.08c-.49-1.25-.95-2.53-1.4-3.81-.14-.4-.28-.81-.41-1.21-.4-1.12-.78-2.27-1.14-3.43l1.67.05c.6.04,1.22.07,1.82.08,2.53.14,5.03.23,7.5.31,2.67.06,5.31.1,7.93.1,12.41,0,23.7-.79,31.78-2.22,7.3-1.28,10.25-2.75,11.34-3.49-.37-.64-1.14-1.72-2.67-3.28-9.6-9.73-32.15-21.47-56.68-25.08-.46-.07-.93-.14-1.37-.19l-7.45-1.38v-.5c-.05-3.25.11-6.47.46-9.55l7.49,1.12s.94.12,1.16.15c29.53,4.1,56.93,19.05,66.33,31.14,2.81,3.62,3.87,6.99,3.12,10.01h0Z"/>
    <path class="st3" d="M43.47,36.92c0,1.81-.74,3.44-1.93,4.64-1.19,1.19-2.83,1.93-4.64,1.93h-16.6c-3.61,0-6.56-2.95-6.56-6.56,0-1.81.74-3.45,1.93-4.64s2.83-1.94,4.64-1.94h16.6c3.61,0,6.56,2.96,6.56,6.57Z"/>
    <path class="st3" d="M28.77,90.76c0,1.81-.74,3.46-1.93,4.64-1.2,1.2-2.83,1.93-4.64,1.93h-9.44c-3.62,0-6.57-2.95-6.57-6.57,0-1.81.74-3.45,1.93-4.62,1.18-1.2,2.83-1.93,4.64-1.93h9.44c3.62,0,6.57,2.95,6.57,6.56h0Z"/>
    <path class="st3" d="M83.16,140.51c0,1.81-.74,3.46-1.93,4.64-1.18,1.2-2.81,1.93-4.62,1.93h-9.18c-3.62,0-6.57-2.95-6.57-6.57,0-1.81.74-3.45,1.93-4.62,1.18-1.2,2.83-1.93,4.64-1.93h9.18c3.6,0,6.56,2.95,6.56,6.56h-.01Z"/>
    <path class="st6" d="M264.32,142.07h-118.41c-1.52-1.42-2.98-2.88-4.36-4.4h122.77c1.35,0,2.56-1.49,3.06-3.69.91,3.72-.77,8.19-3.06,8.09Z"/>
    <path class="st3" d="M91.16,12.33c0,1.39-.56,2.64-1.48,3.55s-2.18,1.48-3.57,1.48h-6.19c-2.78,0-5.05-2.27-5.05-5.03,0-1.39.56-2.65,1.48-3.57.91-.91,2.18-1.48,3.57-1.48h6.19c2.78,0,5.05,2.27,5.05,5.05h0Z"/>
    <path class="st3" d="M71.82,90.51c0,1.81-.74,3.44-1.94,4.64-1.19,1.19-2.83,1.93-4.64,1.93h-16.6c-3.61,0-6.56-2.95-6.56-6.56,0-1.81.74-3.45,1.93-4.64s2.83-1.94,4.64-1.94h16.6c3.61,0,6.57,2.96,6.57,6.57Z"/>
    <g>
      <path class="st6" d="M246.87,95.4l-.67-.9c-9.11-11.81-24.89-28.97-48.39-43.51-24.22-14.99-51.3-24-80.48-26.77-.77-.07-1.56-.16-2.29-.19l-2.65-.33v-.02c.88-1.41,1.81-2.71,2.85-3.9.39-.44.77-.86,1.2-1.23.09-.11.19-.21.3-.28,2.46-2.3,5.48-4.04,8.77-5.05.67-.21,1.34-.39,2.02-.53.37-.09.77-.16,1.14-.21,1.39-.25,2.8-.33,4.22-.33,3.23,0,6.5.6,9.49,1.74,2.32.88,4.57,2.16,6.73,3.74,1.72,1.34,3.45,3.02,5.12,4.96.21.25.39.46.58.7,3.08,3.45,5.96,6.94,8.86,10.39-2.27-4.31-4.71-8.61-7.19-12.92l-.05.02c-.12-.21-.25-.42-.37-.62-2.83-4.82-6.91-8.63-11.64-10.88-4.29-2.18-9.18-3.32-14.2-3.32-1.25,0-2.5.05-3.74.21-.86.11-1.74.25-2.57.44-1.27.25-2.53.58-3.74,1.02-.04-.02-.07-.02-.11-.02h-18.81c-1.49,0-2.87.62-3.85,1.62-1,.97-1.6,2.34-1.6,3.85,0,2.06,1.16,3.87,2.85,4.8h5.68c.51,0,1,.07,1.48.19.46.09.9.25,1.3.47,1.9.91,3.25,2.74,3.5,4.92.04.23.05.49.05.74,0,1.74-.72,3.32-1.85,4.47-.56.56-1.21,1.02-1.95,1.34-.77.35-1.63.53-2.53.53h-5.36s-.02.02-.02.04c-.18-.02-.37-.04-.56-.04h-40.73c-1.81,0-3.45.74-4.64,1.93-1.18,1.2-1.93,2.83-1.93,4.62,0,3.09,2.16,5.7,5.05,6.38h38.52c.35,0,.7.04,1.05.11.18.02.35.04.51.09,3.08.7,5.38,3.48,5.38,6.75,0,1.92-.77,3.66-2.04,4.92-.9.9-2.04,1.53-3.3,1.83-.47.12-.97.19-1.48.19H17.85c-1.18.28-2.25.9-3.09,1.74-1.18,1.2-1.92,2.83-1.92,4.64,0,3.6,2.95,6.56,6.56,6.56h80.05c3.81,0,6.94,3.13,6.94,6.94,0,1.92-.79,3.66-2.04,4.9s-3.01,2.06-4.9,2.06h-11.23c-1.81,0-3.45.74-4.64,1.92-1.18,1.2-1.93,2.83-1.93,4.64,0,2.99,2.02,5.52,4.76,6.31h20.16c.46,0,.88.05,1.28.18h.02c2.02.58,3.52,2.44,3.52,4.64,0,1.32-.54,2.53-1.41,3.39-.9.88-2.09,1.42-3.41,1.42h-.11v.02H26.86c-1.88,0-3.59.77-4.82,2-1.21,1.25-1.99,2.95-1.99,4.83,0,3.78,3.06,6.86,6.8,6.86h86.79l.02.02h7.79c1.42,0,2.76.46,3.85,1.25,1.72,1.21,2.83,3.2,2.83,5.45,0,.44-.04.88-.12,1.3-.26,1.32-.91,2.5-1.83,3.41-.88.88-1.97,1.51-3.18,1.79h-24.91c-1.81,0-3.45.76-4.64,1.97-1.18,1.23-1.93,2.9-1.93,4.75,0,3.69,2.95,6.73,6.57,6.73h35.16c.51,0,.98-.05,1.46-.18,3.27,3.02,6.77,5.82,10.49,8.31,2.9,1.92,5.41,3.36,7.82,4.54,3.16,1.56,5.91,2.62,8.58,3.38,3.8,1.09,7.56,1.65,11.11,1.65,2.64,0,5.22-.33,7.61-.93,3.16-.83,6.06-2.13,8.7-3.85,2.55-1.69,4.85-3.83,6.8-6.35,2.57-3.3,4.57-7.21,5.94-11.6h-3.88c-.37.67-.74,1.3-1.14,1.92-1.56,2.48-3.16,4.45-4.87,6.1-2.07,1.93-4.08,3.38-6.1,4.36-2.14,1.07-4.46,1.78-6.94,2.11-1.05.16-2.18.23-3.3.23-3.48,0-7.19-.77-11-2.29-4.52-1.81-8.97-4.41-13.2-7.77-1.83-1.46-3.64-3.02-5.4-4.66-1.51-1.41-2.97-2.87-4.36-4.39-.3-.25-.53-.54-.81-.83-1.14-1.27-2.25-2.55-3.34-3.87-.26-.33-.53-.67-.77-1h125.88l.62-4.46c.83-6.21-7.84-20.99-16.26-32.1h-.02ZM129.2,121.68c-.23-.37-.47-.74-.7-1.14-4.75-7.45-8.79-15.47-12.06-23.84-.16-.42-.32-.84-.47-1.25l-.26-.67-.04-.09c-.49-1.25-.95-2.53-1.41-3.81-.12-.4-.26-.81-.4-1.21-.39-1.12-.77-2.27-1.14-3.43-.72-2.21-1.37-4.47-1.97-6.77-1.35-5.03-2.43-10.27-3.13-15.56-.35-2.62-.63-5.12-.77-7.45-.12-1.76-.21-3.55-.25-5.33v-.51c-.05-3.23.11-6.47.46-9.55.02-.21.05-.42.07-.63.28-2.11.6-3.94,1.02-5.84.09-.3.12-.6.21-.9l5.73.54,1.76.16c66.03,6.12,104.52,43.72,121.59,65.57l.62.79c6.45,8.42,10.81,15.89,13.1,20.9h-121.94l-.02.02Z"/>
      <path class="st3" d="M226.18,110.21c0,2.83-2.29,5.12-5.12,5.12s-5.1-2.29-5.1-5.12,2.29-5.1,5.1-5.1,5.12,2.29,5.12,5.1Z"/>
      <path class="st3" d="M200.81,110.21c0,2.83-2.29,5.12-5.1,5.12s-5.12-2.29-5.12-5.12,2.29-5.1,5.12-5.1,5.1,2.29,5.1,5.1Z"/>
      <path class="st3" d="M175.96,110.21c0,2.83-2.29,5.12-5.12,5.12s-5.1-2.29-5.1-5.12,2.29-5.1,5.1-5.1,5.12,2.29,5.12,5.1Z"/>
      <path class="st6" d="M107.85,97.26c-.31.05-.62.07-.94.07h-18.7c-.63,0-1.23-.09-1.81-.26h20.16c.45,0,.89.06,1.3.19h0Z"/>
    </g>
  </g>
</svg>