<?xml version="1.0" encoding="UTF-8"?>
<svg id="Layer_1" xmlns="http://www.w3.org/2000/svg" version="1.1" xmlns:xlink="http://www.w3.org/1999/xlink" viewBox="0 0 968.63 321">
  <!-- Generator: Adobe Illustrator 29.4.0, SVG Export Plug-In . SVG Version: 2.1.0 Build 152)  -->
  <defs>
    <style>
      .st0 {
        fill: url(#linear-gradient2);
      }

      .st1 {
        fill: url(#linear-gradient10);
      }

      .st2 {
        opacity: .6;
      }

      .st3 {
        fill: #fff;
      }

      .st4 {
        fill: url(#linear-gradient1);
      }

      .st5 {
        fill: url(#linear-gradient9);
      }

      .st6 {
        opacity: .4;
      }

      .st7 {
        fill: url(#linear-gradient8);
      }

      .st8 {
        fill: url(#linear-gradient11);
      }

      .st9 {
        fill: url(#linear-gradient12);
      }

      .st10 {
        fill: url(#linear-gradient7);
      }

      .st11 {
        fill: url(#linear-gradient4);
      }

      .st12 {
        fill: #ff8e2b;
      }

      .st13 {
        fill: url(#linear-gradient5);
      }

      .st14 {
        fill: url(#linear-gradient3);
      }

      .st15 {
        fill: #515151;
      }

      .st16 {
        fill: url(#linear-gradient6);
      }

      .st17 {
        fill: url(#linear-gradient13);
      }

      .st18 {
        fill: url(#linear-gradient);
      }

      .st19 {
        opacity: .8;
      }
    </style>
    <linearGradient id="linear-gradient" x1=".73" y1="281.22" x2="276.02" y2="124.76" gradientTransform="translate(0 322) scale(1 -1)" gradientUnits="userSpaceOnUse">
      <stop offset="0" stop-color="#f5e48c"/>
      <stop offset=".23" stop-color="#be7f0e"/>
      <stop offset=".41" stop-color="#cca52c"/>
      <stop offset=".59" stop-color="#b58c10"/>
      <stop offset=".77" stop-color="#c39324"/>
      <stop offset="1" stop-color="#deba4c"/>
    </linearGradient>
    <linearGradient id="linear-gradient1" x1="9.4" y1="296.48" x2="284.74" y2="139.97" xlink:href="#linear-gradient"/>
    <linearGradient id="linear-gradient2" x1="19.24" y1="313.82" x2="294.58" y2="157.32" xlink:href="#linear-gradient"/>
    <linearGradient id="linear-gradient3" x1="32.55" y1="337.18" x2="307.86" y2="180.72" gradientTransform="translate(0 322) scale(1 -1)" gradientUnits="userSpaceOnUse">
      <stop offset="0" stop-color="#b18000"/>
      <stop offset=".23" stop-color="#be7f0e"/>
      <stop offset=".41" stop-color="#cca52c"/>
      <stop offset=".59" stop-color="#b58c10"/>
      <stop offset=".77" stop-color="#c39324"/>
      <stop offset="1" stop-color="#deba4c"/>
    </linearGradient>
    <linearGradient id="linear-gradient4" x1="49.94" y1="367.8" x2="325.23" y2="211.31" xlink:href="#linear-gradient"/>
    <linearGradient id="linear-gradient5" x1="57.72" y1="381.39" x2="332.98" y2="224.96" xlink:href="#linear-gradient"/>
    <linearGradient id="linear-gradient6" x1="70.67" y1="404.22" x2="345.95" y2="247.74" xlink:href="#linear-gradient"/>
    <linearGradient id="linear-gradient7" x1="7.87" y1="276.96" x2="55.33" y2="249.97" xlink:href="#linear-gradient"/>
    <linearGradient id="linear-gradient8" x1="60.6" y1="267.6" x2="95.82" y2="247.6" xlink:href="#linear-gradient"/>
    <linearGradient id="linear-gradient9" x1="104.07" y1="265.58" x2="141.04" y2="244.57" xlink:href="#linear-gradient"/>
    <linearGradient id="linear-gradient10" x1="143.94" y1="273.68" x2="221.13" y2="229.82" xlink:href="#linear-gradient"/>
    <linearGradient id="linear-gradient11" x1="217.53" y1="272.35" x2="257.09" y2="249.86" xlink:href="#linear-gradient"/>
    <linearGradient id="linear-gradient12" x1="246.67" y1="274.26" x2="304.07" y2="241.65" xlink:href="#linear-gradient"/>
    <linearGradient id="linear-gradient13" x1="300.04" y1="273.67" x2="377.18" y2="229.82" xlink:href="#linear-gradient"/>
  </defs>
  <g class="st19">
    <path class="st12" d="M650.07,151.9l8.66-19.99v38.95l-18.79-21.54c2.22.27,3.99.62,5.07.97l5.04,1.6h.02Z"/>
    <path class="st12" d="M561.29,59.14l-12.8-14.67h54.78l58.39,66.93,2.67,3.07h-5.59v5.89l-.77-.4c-8.96-4.62-17.94-5.24-26.3-5.24-1.72,0-3.47,0-5.21.05-1.72.03-3.47.05-5.24.05-3.27,0-6.54.8-9.56,2.07l-1.33-1.52v-.9h-.8l-48.26-55.32h.02Z"/>
    <path class="st12" d="M658.72,176.88c0,12.58,5.02,24.03,13.2,32.39l-15.12,17.19-62.04,70.52h-46.26l12.9-14.67,97.34-110.67v5.24h-.03Z"/>
    <path class="st12" d="M709.61,166.4l-12.95,14.75c-1.15-2.27-1.8-4.87-1.8-7.59,0-7.91-.02-16.05-.07-24.18l14.85,17.02h-.03Z"/>
  </g>
  <g class="st2">
    <path class="st12" d="M503.85,69.08l-8.68-9.93h58.89l47.04,53.9,1.22,1.4h-27.92v35.56l-7.46-8.56v-50.48h-36.11v9.06l-26.97-30.94Z"/>
    <path class="st12" d="M574.39,223.17h31.79l-3.97,4.52-48.04,54.62h-59.01l11.8-13.43,39.75-45.19h20.21v-22.96l7.46-8.48v30.92Z"/>
    <path class="st12" d="M651.85,171.24l-20.51,23.33-21.01,23.88v-1.15c0-4.64.05-9.31.08-13.95.05-4.69.07-9.38.07-14.07l-.17-5.86v-29.99c-.02-.37.03-.57.38-.95,1.7-1.77,7.59-3.84,18.64-3.84.94,0,1.92,0,2.84.05l19.66,22.53.03.03Z"/>
  </g>
  <g class="st6">
    <path class="st12" d="M490.74,117.34l-42.1-48.26h47.96l34.21,39.23v8.96c-3.44-1.25-7.24-1.95-10.9-1.95h-15.55c-4.74,0-9.31.7-13.62,2.02Z"/>
    <path class="st12" d="M530.82,223.69h8.68l-39.78,45.19h-51.08l42.05-47.79c4.32,1.37,8.91,2.07,13.67,2.07h15.55c3.77,0,7.51-.7,10.9-1.92v2.45Z"/>
    <path class="st12" d="M566.92,149.73l7.46,8.53v25.78l-7.46,8.48v-42.8Z"/>
  </g>
  <path class="st12" d="M681.38,253.43h48.64l-20.72,22.36-39.72,42.94v.42h-87.14l19.52-22.18,62.03-70.52,11.9-13.52c3.77,3.09,8.01,5.56,12.6,7.34h-7.14v33.19l.03-.03Z"/>
  <path class="st12" d="M694.65,114.44h-23.13l-2.67-3.07-58.39-66.92-28.02-32.12h84.04l47.41,50.68,29.92,32.04,1.82,1.92,16.37,17.49h-31.74v59.11c0,9.18-7.76,16.94-16.94,16.94h-1.55c-4.61,0-8.83-1.85-11.87-4.89l16.89-19.21-15.87-18.22-6.24-7.14c-.05-7.09-.07-14.05-.07-20.71v-5.86l.05-.05Z"/>
  <path class="st12" d="M817.94,166.4l134.38,152.76h-87.09l-20.36-22.18-77.25-84.14-3.7,3.99c-1.82-4.67-4.44-8.66-7.43-11.45,6.34-8.08,9.88-18.14,9.88-28.5v-57.72l1.22,1.3,70.74-75.98,29.89-32.12h84.04l-134.38,154.06.05-.02Z"/>
  <path class="st3" d="M658.71,170.83v.77l.35-.37-.35-.4Z"/>
  <path class="st15" d="M41.04,193.27v-96.47h-24.35v121.17h98.34v-24.53l-73.99-.17Z"/>
  <path class="st15" d="M219.26,152.82c-.35-17.79-17.47-32.14-35.78-32.14-35.26,0-17.64.35-52.73.35v20.94h47.54c11.93,0,16.59,2.92,16.59,14.67-3.47-5.19-10.73-7.59-16.59-7.59h-17.99c-20.56,0-38.2,9.68-38.2,31.97v5.02c0,22.46,15.72,31.47,37.01,31.47h19.19c6.04,0,12.95-2.94,16.77-7.96v8.28h24.38v-60.66l-.18-4.34ZM179.36,195.17h-10.03c-13.67,0-21.61.18-21.61-12.43v-.35c0-12.45,8.98-12.98,21.61-12.98h10.03c5.86,0,13.65,3.47,15.55,10.73,0,6.04.17.52.17,6.74-2.07,7.99-9.68,8.28-15.72,8.28Z"/>
  <path class="st15" d="M308.65,119.99v64.31c-.67,7.09-9.68,11.9-15.72,11.9h-10.03c-12.6,0-22.81-10.18-22.81-22.81,0-17.44-.17-36.31-.17-53.23h-24.2v56.52c0,22.28,18.34,40.6,40.6,40.6h15.55c6.91,0,14.37-4.84,16.77-9.16v9.51h24.4v-97.67h-24.4l.03.03Z"/>
  <path class="st15" d="M406.91,120.68h-16.34c-7.06,0-14.87,4.99-17.59,9.16v-9.33h-25.4v97.49h25.4v-3.99h.17v-24.53h-.17v-35.61c.7-7.26,10.16-12.08,16.69-12.08h10.53c13.05,0,23.93,10.36,23.93,22.81v53.25h25.58v-56.52c0-22.28-19.24-40.6-42.8-40.6v-.05Z"/>
  <path class="st15" d="M536.66,96.83v30.94c-3.09-3.62-10.21-6.56-16.77-6.56h-15.55c-3.19,0-6.31.37-9.31,1.1-17.87,4.19-31.32,20.26-31.32,39.53v14.87c0,19.21,13.43,35.28,31.29,39.5,2.99.75,6.14,1.12,9.36,1.12h15.55c6.04,0,12.8-2.25,16.77-6.56v7.09h24.35v-121h-24.35l-.03-.03ZM536.66,189.8c-1.92,5.19-9.68,6.39-15.72,6.39h-8.81c-12.63,0-22.81-10.18-22.81-22.81v-8.28c0-12.63,10.18-22.81,22.81-22.81h8.81c6.04,0,13.47.32,15.72,5.89v41.65-.03Z"/>
  <path class="st15" d="M655.27,125.15l-8.46,19.54c-2.52-.8-7.13-1.5-12.4-1.77-1.65-.1-3.34-.15-5.05-.15-.77,0-1.54,0-2.32.03-11.38.27-22.88,2.94-22.56,10.85v35.61h.17c0,9.33-.17,18.67-.17,28h-24.21v-96.97h24.21v9.51c1.22-2.02,3.47-4.14,6.19-5.81,1.6-1,3.34-1.85,5.17-2.4,1.79-.6,3.64-.95,5.44-.95,11.93,0,22.98-1.22,34.04,4.47l-.05.05Z"/>
  <path class="st15" d="M760.88,230.43c0,15.42-12.45,16.97-25.36,17.12h-48.28v-21.43h49.61c13.47,0,13.47-13.82,3.29-14.15-5.89,3.44-12.98,5.51-20.24,5.51h-14.67c-9.58,0-18.44-3.37-25.38-9.01-1.4-1.12-2.77-2.35-3.99-3.69-6.99-7.29-11.28-17.14-11.28-27.9v-56.54h24.21v13.92c.03,2.8.03,5.51.03,8.31.08,10.38.13,20.94.13,31.02,0,4.49,1.3,8.68,3.59,12.23,1,1.55,2.14,2.97,3.49,4.22,4.07,3.89,9.63,6.34,15.75,6.34h1.55c12.45,0,22.8-10.36,22.8-22.81v-53.25h24.38v56.54c0,11.9-5.19,22.63-13.48,30.04,4.34.12,9.81,6.09,12.38,14.75.8,2.69,1.3,5.64,1.42,8.76l.05.02Z"/>
  <path class="st15" d="M17.44,238.81h8.28c5.04,0,7.19,2.22,7.19,4.79,0,2.87-2.35,4.32-5.12,4.32v.3c2.94,0,6.06,1.57,6.06,5.04,0,3.22-2.22,5.59-8.13,5.59h-8.28v-20.04ZM25.03,246.69c1.75,0,2.65-1.15,2.65-2.3s-.87-2.3-2.65-2.3h-2.32v4.59h2.32ZM25.18,255.35c2.3,0,3.29-1.35,3.29-2.72s-.95-2.69-3.29-2.69h-2.47v5.41h2.47Z"/>
  <path class="st15" d="M35.66,251.39c0-5.19,3.44-7.74,7.31-7.74,3.67,0,6.91,2.54,6.91,7.69,0,.25,0,1.12-.02,1.37h-9.21c.47,2.35,2.12,3.32,4.02,3.32,1.35,0,2.89-.45,4.27-1.17l-.05,3.12c-1.37.7-3.19,1.15-5.19,1.15-3.77,0-8.01-2.15-8.01-7.74h-.02ZM45.77,249.99c-.1-2.27-1.25-3.44-2.6-3.44-1.22,0-2.27,1.02-2.57,3.44h5.17Z"/>
  <path class="st15" d="M50,243.98h5.27l2.12,8.18c.15.65.37,1.72.37,2.32h.3c0-.6.22-1.72.37-2.37l2.12-8.14h5.27l-5.09,13.82h-.02l-.4,1.15c-.95,2.57-3.07,5.27-6.94,5.27-.65,0-1.35-.07-2.12-.25v-3.09c.5.12.97.2,1.45.2,2.22,0,3.42-1.7,4.09-3.24h-1.7l-5.09-13.82v-.03Z"/>
  <path class="st15" d="M65.94,251.41c0-5.12,3.39-7.76,7.64-7.76s7.64,2.64,7.64,7.76-3.32,7.71-7.64,7.71-7.64-2.62-7.64-7.71ZM73.58,256.23c1.45,0,2.57-1.25,2.57-4.82s-1.2-4.87-2.57-4.87-2.57,1.25-2.57,4.87,1.2,4.82,2.57,4.82Z"/>
  <path class="st15" d="M90.48,247.07c-1.2,0-2.32,1.02-2.37,3.54v8.21h-4.87v-14.87h4.64v3.44h.3c0-1.37,1.17-3.72,4.29-3.72,2.74,0,5.02,1.77,5.02,5.61v9.53h-4.87v-8.19c0-2.5-.95-3.57-2.17-3.57h.03Z"/>
  <path class="st15" d="M99.38,251.49c0-5.14,3.09-7.84,5.99-7.84,1.75,0,3.12.77,4.02,2.07-.05-.55-.1-1.05-.1-1.65v-5.91h4.87v20.69h-4.64v-3.44h-.3c0,1.35-1.2,3.72-4.24,3.72-2.45,0-5.56-2.1-5.56-7.64h-.03ZM106.92,255.73c1.2,0,2.42-1.05,2.45-3.52v-1.9c0-2.57-1.12-3.64-2.42-3.64s-2.47,1.27-2.47,4.52,1.17,4.52,2.45,4.52v.02Z"/>
  <path class="st15" d="M121.99,248.54c0-7.01,4.97-9.98,9.88-9.98,2.12,0,4.14.67,5.79,1.62l-.8,3.49c-1.12-.77-2.67-1.42-4.37-1.42-3.14,0-4.84,2.55-4.84,6.46s1.67,6.64,5.14,6.64c1.65,0,3.09-.52,4.97-1.62v3.84c-1.52.85-3.52,1.45-5.51,1.45-5.19,0-10.26-3.12-10.26-10.51v.03Z"/>
  <path class="st15" d="M139.68,238.16h4.87v20.69h-4.87v-20.69Z"/>
  <path class="st15" d="M146.57,251.39c0-5.19,3.44-7.74,7.31-7.74,3.67,0,6.91,2.54,6.91,7.69,0,.25,0,1.12-.03,1.37h-9.21c.47,2.35,2.12,3.32,4.02,3.32,1.35,0,2.89-.45,4.27-1.17l-.05,3.12c-1.37.7-3.19,1.15-5.19,1.15-3.77,0-8.01-2.15-8.01-7.74h-.03ZM156.68,249.99c-.1-2.27-1.25-3.44-2.6-3.44-1.22,0-2.27,1.02-2.57,3.44h5.17Z"/>
  <path class="st15" d="M171.53,255.78h-.3c0,2.1-1.97,3.32-4.07,3.32-2.45,0-5.09-1.62-5.09-4.84,0-3.42,2.87-5.02,5.59-5.02,1.42,0,2.82.45,3.77,1.3v-.25c.02-2.87-1.75-3.67-3.67-3.67-1.35,0-2.84.4-3.82.92l-.6-2.92c1.72-.65,3.82-1.05,5.76-1.05,3.69,0,7.11,1.37,7.11,6.11v9.16h-4.69v-3.07ZM168.89,255.68c1.47,0,2.55-.85,2.55-1.77v-.52c0-.95-1.02-1.77-2.47-1.77s-2.57.82-2.57,2.05c0,1.15,1.02,2.05,2.5,2.05v-.03Z"/>
  <path class="st15" d="M185.78,247.07c-1.2,0-2.32,1.02-2.37,3.54v8.21h-4.87v-14.87h4.64v3.44h.3c0-1.37,1.17-3.72,4.29-3.72,2.75,0,5.02,1.77,5.02,5.61v9.53h-4.87v-8.19c0-2.5-.95-3.57-2.17-3.57h.03Z"/>
  <path class="st15" d="M195.28,254.78h4.37l-1.92,7.26h-3.04l.6-7.26Z"/>
  <path class="st15" d="M207.45,238.81h12.7v3.47h-7.44v4.84h6.49v3.47h-6.49v8.29h-5.24v-20.04l-.03-.03Z"/>
  <path class="st15" d="M229.77,255.78h-.3c0,2.1-1.97,3.32-4.07,3.32-2.45,0-5.09-1.62-5.09-4.84,0-3.42,2.87-5.02,5.59-5.02,1.42,0,2.82.45,3.77,1.3v-.25c.03-2.87-1.75-3.67-3.67-3.67-1.35,0-2.84.4-3.82.92l-.6-2.92c1.72-.65,3.82-1.05,5.76-1.05,3.69,0,7.11,1.37,7.11,6.11v9.16h-4.69v-3.07ZM227.13,255.68c1.47,0,2.54-.85,2.54-1.77v-.52c0-.95-1.02-1.77-2.47-1.77s-2.57.82-2.57,2.05c0,1.15,1.02,2.05,2.5,2.05v-.03Z"/>
  <path class="st15" d="M236.2,257.53l.6-3.07c1.27,1.1,3.67,1.85,5.32,1.85,1.2,0,2.15-.4,2.15-1.4,0-2.45-7.96-.77-7.96-6.54,0-3.39,3.07-4.74,6.49-4.74,1.75,0,3.57.4,4.99,1l-.6,2.92c-.82-.6-2.82-1.2-4.29-1.2-1.17,0-2.1.4-2.1,1.27,0,2.32,8.14.52,8.14,6.51,0,3.54-3.12,4.94-6.59,4.94-2.2,0-4.47-.57-6.16-1.55h.03Z"/>
  <path class="st15" d="M251.28,253.38v-6.51h-1.57v-2.89h1.55c.45-.5.65-1.42.65-3.49h4.22v3.49h2.79v2.89h-2.79v5.64c0,2.25.92,3.07,2.25,3.07.5,0,1-.12,1.5-.35v3.04c-.95.45-2.3.77-3.64.77-2.62,0-4.94-1.65-4.94-5.66Z"/>
  <path class="st15" d="M260.63,251.39c0-5.19,3.44-7.74,7.31-7.74,3.67,0,6.91,2.54,6.91,7.69,0,.25,0,1.12-.03,1.37h-9.21c.47,2.35,2.12,3.32,4.02,3.32,1.35,0,2.89-.45,4.27-1.17l-.05,3.12c-1.37.7-3.19,1.15-5.19,1.15-3.77,0-8.01-2.15-8.01-7.74h-.03ZM270.76,249.99c-.1-2.27-1.25-3.44-2.6-3.44-1.22,0-2.27,1.02-2.57,3.44h5.17Z"/>
  <path class="st15" d="M276.73,243.98h4.64v3.59h.3c.27-2.69,2.42-4.19,6.09-3.59l-.42,3.77c-2.69-.4-5.74.1-5.79,4.32v6.76h-4.87v-14.87l.05.03Z"/>
  <path class="st15" d="M300.29,242.85h-5.74v-4.07h16.72v4.07h-5.74v15.97h-5.24v-15.97Z"/>
  <path class="st15" d="M312.76,253.51v-9.53h4.87v8.18c0,2.5.95,3.54,2.17,3.54s2.32-1.02,2.37-3.52v-8.21h4.87v14.87h-4.64v-3.44h-.3c0,1.35-1.17,3.72-4.29,3.72-2.74,0-5.02-1.77-5.02-5.61h-.02Z"/>
  <path class="st15" d="M329.56,243.98h4.64v3.59h.3c.27-2.69,2.42-4.19,6.09-3.59l-.42,3.77c-2.69-.4-5.74.1-5.79,4.32v6.76h-4.87v-14.87l.05.03Z"/>
  <path class="st15" d="M349.55,247.07c-1.2,0-2.32,1.02-2.37,3.54v8.21h-4.87v-14.87h4.64v3.44h.3c0-1.37,1.17-3.72,4.29-3.72,2.75,0,5.02,1.77,5.02,5.61v9.53h-4.87v-8.19c0-2.5-.95-3.57-2.17-3.57h.03Z"/>
  <path class="st15" d="M367.81,255.78h-.3c0,2.1-1.97,3.32-4.07,3.32-2.45,0-5.09-1.62-5.09-4.84,0-3.42,2.87-5.02,5.59-5.02,1.42,0,2.82.45,3.77,1.3v-.25c.03-2.87-1.75-3.67-3.67-3.67-1.35,0-2.84.4-3.82.92l-.6-2.92c1.72-.65,3.82-1.05,5.76-1.05,3.69,0,7.11,1.37,7.11,6.11v9.16h-4.69v-3.07ZM365.16,255.68c1.47,0,2.55-.85,2.55-1.77v-.52c0-.95-1.02-1.77-2.47-1.77s-2.57.82-2.57,2.05c0,1.15,1.02,2.05,2.5,2.05v-.03Z"/>
  <path class="st15" d="M374.85,243.98h4.64v3.59h.3c.27-2.69,2.42-4.19,6.09-3.59l-.42,3.77c-2.7-.4-5.74.1-5.79,4.32v6.76h-4.87v-14.87l.05.03Z"/>
  <path class="st15" d="M386.45,251.41c0-5.12,3.39-7.76,7.64-7.76s7.64,2.64,7.64,7.76-3.32,7.71-7.64,7.71-7.64-2.62-7.64-7.71ZM394.07,256.23c1.45,0,2.57-1.25,2.57-4.82s-1.2-4.87-2.57-4.87-2.57,1.25-2.57,4.87,1.2,4.82,2.57,4.82Z"/>
  <path class="st15" d="M403.57,253.51v-9.53h4.87v8.18c0,2.5.95,3.54,2.17,3.54s2.32-1.02,2.37-3.52v-8.21h4.87v14.87h-4.64v-3.44h-.3c0,1.35-1.17,3.72-4.29,3.72-2.75,0-5.02-1.77-5.02-5.61h-.03Z"/>
  <path class="st15" d="M427.63,247.07c-1.2,0-2.32,1.02-2.37,3.54v8.21h-4.87v-14.87h4.64v3.44h.3c0-1.37,1.17-3.72,4.29-3.72,2.74,0,5.02,1.77,5.02,5.61v9.53h-4.87v-8.19c0-2.5-.95-3.57-2.17-3.57h.02Z"/>
  <path class="st15" d="M436.53,251.49c0-5.14,3.09-7.84,5.99-7.84,1.75,0,3.12.77,4.02,2.07-.05-.55-.1-1.05-.1-1.65v-5.91h4.87v20.69h-4.64v-3.44h-.3c0,1.35-1.2,3.72-4.24,3.72-2.45,0-5.56-2.1-5.56-7.64h-.02ZM444.04,255.73c1.2,0,2.42-1.05,2.45-3.52v-1.9c0-2.57-1.12-3.64-2.42-3.64s-2.47,1.27-2.47,4.52,1.17,4.52,2.45,4.52v.02Z"/>
  <path class="st18" d="M56.47,36.29c-4.07-3.34-9.66-5.02-16.79-5.02h-22.23v.4c2.22,0,3.69.92,4.44,2.79.72,1.85,1.1,4.19,1.1,7.06v34.98c0,2.84-.37,5.19-1.1,7.06-.75,1.87-2.22,2.79-4.44,2.79v.4h22.96v-.4c-2.25,0-3.69-.92-4.44-2.79-.75-1.85-1.12-4.19-1.12-7.06v-5.04h6.34c4.17,0,7.86-.82,11.08-2.47,3.22-1.65,5.74-4.02,7.56-7.14,1.82-3.14,2.72-6.86,2.72-11.13,0-6.31-2.02-11.1-6.09-14.42l.02-.02ZM34.86,69.85v-37.01h1.97c3.97,0,7.14,1.6,9.53,4.72,2.37,3.14,3.57,7.54,3.57,13.13s-1.15,10.43-3.37,13.9c-2.25,3.47-5.44,5.22-9.63,5.29h-2.07v-.03Z"/>
  <path class="st4" d="M89.31,50.49c-3.57,2.22-6.14,5.44-7.71,9.53v-12.9h-.4c-1.07,1.42-2.52,2.45-4.32,3.09-1.85.62-4.22.95-7.19.95h-5.54v.4c2.22,0,3.72.92,4.47,2.77.7,1.85,1.07,4.19,1.07,7.04v15.12c0,2.84-.37,5.19-1.07,7.06-.75,1.87-2.25,2.79-4.47,2.79v.4h22.98v-.4c-2.22,0-3.69-.92-4.44-2.79-.75-1.85-1.1-4.19-1.1-7.06v-7.59c0-4.22.65-7.21,1.92-8.96,1.32-1.75,3.57-2.62,6.79-2.62,1.15,0,2.72.15,4.69.4l5.37-10.61c-3.82,0-7.49,1.12-11.05,3.37Z"/>
  <path class="st0" d="M141.01,73.32c-1.55,1.57-3.29,2.79-5.22,3.62-1.97.82-3.99,1.22-6.11,1.22-3.54,0-6.76-1.1-9.68-3.32-2.94-2.2-4.94-5.32-6.06-9.33-.6-2.22-.82-4.57-.72-6.99h27.5l-.65-1.57c-1.65-3.27-3.99-5.84-7.04-7.76-3.07-1.92-6.61-2.84-10.61-2.84-3.74,0-7.14.92-10.13,2.77-3.02,1.85-5.34,4.37-7.01,7.56-1.67,3.19-2.5,6.69-2.5,10.51s.87,7.11,2.57,10.21c1.7,3.12,4.07,5.59,7.04,7.41,2.99,1.82,6.34,2.72,10.03,2.72,4.69,0,8.73-1.27,12.1-3.84,3.39-2.57,5.71-6.04,6.91-10.36h-.42ZM121.17,47.82c1.82,0,3.19.4,4.17,1.15.97.77,1.7,1.8,2.12,3.04.42,1.25.77,2.89,1,4.89h-15.12c.37-2.67,1.22-4.89,2.5-6.56,1.3-1.7,3.07-2.55,5.34-2.55v.02Z"/>
  <path class="st14" d="M218.11,83.55c-.75-1.85-1.1-4.19-1.1-7.06v-13.45c0-4.79-.92-8.78-2.72-11.95-1.82-3.17-4.92-4.77-9.31-4.77-3.64,0-6.84,1.3-9.58,3.92-2.74,2.62-4.79,5.91-6.19,9.93-.3-4.07-1.4-7.39-3.27-9.96-1.87-2.6-4.79-3.89-8.71-3.89-3.59,0-6.76,1.27-9.48,3.84-2.75,2.55-4.79,5.79-6.19,9.71v-12.75h-.4c-1.07,1.42-2.5,2.45-4.32,3.09-1.82.62-4.19.95-7.19.95h-5.51v.4c2.22,0,3.69.92,4.44,2.77.72,1.85,1.1,4.19,1.1,7.04v15.12c0,2.84-.37,5.19-1.1,7.06-.75,1.87-2.22,2.79-4.44,2.79v.4h22.96v-.4c-2.25,0-3.69-.92-4.44-2.79-.75-1.85-1.12-4.19-1.12-7.06v-7.59c.05-2.99.52-5.79,1.45-8.36.9-2.57,2.07-4.62,3.59-6.09,1.5-1.5,3.17-2.27,4.94-2.27s3.22.75,4.07,2.25c.87,1.5,1.4,3.27,1.55,5.34.17,2.07.25,5.02.25,8.81v7.94c0,2.84-.37,5.19-1.12,7.06-.75,1.87-2.22,2.79-4.44,2.79v.4h22.96v-.4c-2.2,0-3.69-.92-4.44-2.79-.75-1.85-1.1-4.19-1.1-7.06v-7.59c.07-2.99.55-5.79,1.42-8.36.9-2.57,2.1-4.62,3.62-6.09,1.5-1.5,3.14-2.27,4.92-2.27s3.22.75,4.09,2.25c.85,1.5,1.37,3.27,1.55,5.34.15,2.07.22,5.02.22,8.81v6.51c0,3.47,1.07,6.29,3.22,8.41,2.15,2.15,4.94,3.22,8.43,3.22h5.79v-.4c-2.22,0-3.72-.92-4.44-2.79h.05Z"/>
  <path class="st11" d="M239.87,28.88c-1.12-1.12-2.67-1.7-4.57-1.7s-3.34.57-4.47,1.7c-1.15,1.12-1.72,2.65-1.72,4.47s.57,3.42,1.72,4.57c1.12,1.15,2.62,1.7,4.47,1.7s3.42-.55,4.57-1.7c1.12-1.12,1.7-2.65,1.7-4.57s-.57-3.34-1.7-4.47ZM242.66,83.55c-.75-1.85-1.1-4.19-1.1-7.06v-29.37h-.4c-1.05,1.42-2.47,2.45-4.32,3.09-1.82.62-4.22.95-7.16.95h-5.54v.4c2.2,0,3.69.92,4.44,2.77.75,1.85,1.1,4.19,1.1,7.04v15.12c0,2.84-.37,5.19-1.1,7.06-.75,1.87-2.25,2.79-4.44,2.79v.4h22.93v-.4c-2.2,0-3.69-.92-4.44-2.79h.03Z"/>
  <path class="st13" d="M294.17,50.29c.75-1.85,2.2-2.77,4.42-2.77v-.4h-22.98v.4c2.22,0,3.72.92,4.47,2.77.7,1.85,1.07,4.19,1.07,7.04v7.59c0,2.69-.37,5.34-1.07,7.93-.75,2.6-1.82,4.72-3.22,6.34-1.4,1.65-3.02,2.45-4.89,2.45s-3.19-.75-4.07-2.22c-.85-1.5-1.37-3.27-1.55-5.34-.15-2.07-.22-5.02-.22-8.83v-7.94c0-2.84.37-5.19,1.1-7.04.72-1.85,2.22-2.77,4.44-2.77v-.4h-22.98v.4c2.22,0,3.69.92,4.44,2.77.75,1.85,1.1,4.19,1.1,7.04v13.47c0,4.79.92,8.78,2.72,11.95,1.82,3.17,4.92,4.77,9.31,4.77,3.54,0,6.59-1.22,9.16-3.64,2.55-2.42,4.47-5.54,5.71-9.36v.65c0,3.49,1.1,6.29,3.22,8.41,2.15,2.15,4.97,3.22,8.43,3.22h5.76v-.4c-2.22,0-3.69-.92-4.42-2.77-.75-1.82-1.12-4.19-1.12-7.06v-19.24c0-2.84.37-5.19,1.12-7.04l.05.02Z"/>
  <path class="st16" d="M374.15,83.55c-.75-1.85-1.12-4.19-1.12-7.06v-13.45c0-4.79-.92-8.78-2.72-11.95-1.85-3.17-4.94-4.77-9.31-4.77-3.64,0-6.84,1.3-9.58,3.92-2.74,2.62-4.82,5.91-6.16,9.93-.32-4.07-1.42-7.39-3.29-9.96-1.87-2.6-4.74-3.89-8.66-3.89-3.59,0-6.76,1.27-9.51,3.84-2.75,2.55-4.82,5.79-6.16,9.71v-12.75h-.4c-1.07,1.42-2.52,2.45-4.34,3.09-1.82.62-4.22.95-7.16.95h-5.54v.4c2.2,0,3.69.92,4.44,2.77.75,1.85,1.1,4.19,1.1,7.04v15.12c0,2.84-.37,5.19-1.1,7.06-.75,1.87-2.25,2.79-4.44,2.79v.4h22.93v-.4c-2.2,0-3.69-.92-4.44-2.79-.75-1.85-1.07-4.19-1.07-7.06v-7.59c.05-2.99.52-5.79,1.4-8.36.9-2.57,2.1-4.62,3.62-6.09,1.5-1.5,3.14-2.27,4.94-2.27s3.19.75,4.07,2.25c.85,1.5,1.4,3.27,1.55,5.34.15,2.07.22,5.02.22,8.81v7.94c0,2.84-.37,5.19-1.12,7.06-.72,1.87-2.22,2.79-4.44,2.79v.4h22.98v-.4c-2.25,0-3.69-.92-4.44-2.79-.75-1.85-1.12-4.19-1.12-7.06v-7.59c.05-2.99.52-5.79,1.4-8.36.92-2.57,2.12-4.62,3.62-6.09,1.52-1.5,3.14-2.27,4.97-2.27s3.19.75,4.07,2.25c.87,1.5,1.4,3.27,1.55,5.34.15,2.07.25,5.02.25,8.81v6.51c0,3.47,1.07,6.29,3.19,8.41,2.12,2.15,4.94,3.22,8.43,3.22h5.76v-.4c-2.22,0-3.69-.92-4.44-2.79h.1Z"/>
  <path class="st10" d="M63.65,50.04c-.05-3.04-.6-5.76-1.62-8.13-1.07-2.55-2.72-4.74-4.87-6.49-4.24-3.47-10.13-5.22-17.49-5.22h-23.36v2.6h1.12c1.77,0,2.82.65,3.39,2.07.7,1.72,1.05,3.97,1.05,6.66v34.98c0,2.69-.35,4.92-1.05,6.64-.57,1.42-1.65,2.07-3.39,2.07h-1.12v2.6h25.18v-2.6h-1.1c-1.77,0-2.84-.65-3.42-2.07-.67-1.7-1-3.94-1-6.64v-3.97h5.22c4.34,0,8.23-.87,11.6-2.57,3.39-1.72,6.09-4.29,8.01-7.59,1.62-2.82,2.57-6.04,2.79-9.71.05-.65.07-1.27.07-1.95,0-.22,0-.42-.02-.65v-.05ZM41.19,70.32h-.27c2.67-.85,4.87-2.57,6.54-5.14,2.37-3.62,3.54-8.51,3.54-14.5s-1.27-10.46-3.79-13.77c-1.67-2.22-3.72-3.74-6.14-4.49,6.19.2,11.13,1.8,14.7,4.72,3.84,3.14,5.71,7.56,5.71,13.57,0,4.04-.87,7.59-2.57,10.58-1.7,2.92-4.12,5.19-7.11,6.74-3.04,1.55-6.61,2.32-10.61,2.32v-.03ZM36.83,33.94c3.64,0,6.46,1.42,8.61,4.29,2.25,2.94,3.34,7.14,3.34,12.48s-1.07,10.03-3.17,13.28c-2.07,3.14-4.92,4.72-8.71,4.77h-.95v-34.81h.87ZM22.9,83.95c.8-1.97,1.2-4.47,1.2-7.46v-34.98c0-2.99-.4-5.49-1.2-7.49-.25-.62-.6-1.2-.97-1.65h11.85v44.09c0,2.99.4,5.49,1.2,7.49.25.62.57,1.2,1,1.65h-14.05c.4-.45.75-1,.97-1.65Z"/>
  <path class="st7" d="M100.36,46c-3.99,0-7.91,1.2-11.63,3.54-2.45,1.55-4.47,3.52-6.04,5.91v-9.46h-2.05l-.35.45c-.92,1.27-2.15,2.15-3.77,2.69-1.7.6-3.99.9-6.81.9h-6.64v2.6h1.1c1.77,0,2.84.67,3.42,2.07.7,1.72,1.05,3.97,1.05,6.64v15.12c0,2.69-.35,4.92-1.05,6.64-.55,1.42-1.65,2.07-3.42,2.07h-1.1v2.6h25.15v-2.6h-1.1c-1.77,0-2.84-.65-3.42-2.07-.67-1.7-1.02-3.94-1.02-6.64v-7.59c0-3.97.57-6.76,1.72-8.28,1.07-1.45,3.04-2.15,5.89-2.15,1.1,0,2.65.12,4.52.37l.77.12,6.54-12.93h-1.77v-.02ZM90.3,56.23c-2.92,0-5.19.7-6.71,2.02,1.5-2.84,3.62-5.17,6.31-6.86,2.77-1.77,5.66-2.79,8.61-3.09l-4.17,8.23c-1.62-.2-2.97-.3-4.04-.3ZM69.61,83.95c.8-1.97,1.2-4.49,1.2-7.46v-15.12c0-2.97-.4-5.46-1.2-7.44-.22-.55-.55-1.12-1-1.67h1.07c3.12,0,5.61-.32,7.54-1.02,1.25-.4,2.32-1,3.27-1.77v16.49l.15-.4c-.1,1-.15,2.12-.15,3.34v7.59c0,2.99.4,5.49,1.2,7.49.25.62.57,1.2,1,1.65h-14.05c.4-.45.72-1,1-1.65l-.02-.03Z"/>
  <path class="st5" d="M140.51,72.24l-.32.32c-1.45,1.5-3.07,2.6-4.89,3.37-1.8.75-3.72,1.15-5.66,1.15-3.27,0-6.31-1.05-9.03-3.09-2.72-2.1-4.62-5.04-5.64-8.78-.47-1.77-.7-3.64-.7-5.56h28l-1.25-3.17c-1.75-3.47-4.24-6.21-7.46-8.23-3.22-2-6.99-3.02-11.18-3.02-3.94,0-7.54,1-10.73,2.94-3.14,1.95-5.64,4.64-7.41,8.01-1.72,3.32-2.6,7.04-2.6,11s.9,7.49,2.69,10.75c1.82,3.27,4.32,5.89,7.44,7.79,3.14,1.95,6.71,2.89,10.61,2.89,4.92,0,9.23-1.37,12.78-4.07,3.57-2.69,6.01-6.36,7.29-10.9l.4-1.4h-2.32ZM122.37,86.39c-3.47,0-6.66-.85-9.43-2.55-2.82-1.72-5.04-4.07-6.66-6.99-1.65-2.94-2.45-6.19-2.45-9.68s.82-6.96,2.37-9.98c1.57-2.99,3.79-5.39,6.61-7.14,1.07-.67,2.17-1.2,3.34-1.57-.45.35-.82.77-1.2,1.25-1.42,1.82-2.32,4.22-2.72,7.09l-.15,1.27v.42c-.12,2.55.12,4.99.75,7.34,1.15,4.19,3.34,7.56,6.46,9.91,3.09,2.37,6.59,3.57,10.36,3.57,2.25,0,4.47-.42,6.54-1.3.97-.42,1.95-.95,2.87-1.55-1.25,2.54-2.99,4.72-5.22,6.39-3.17,2.4-7.04,3.62-11.45,3.62l-.02-.1ZM132.4,50.11c2.87,1.77,5.09,4.22,6.61,7.24v.07h-9.36l-.1-.62c-.27-2.1-.62-3.82-1.07-5.14-.5-1.45-1.3-2.67-2.47-3.57-.22-.2-.47-.35-.77-.5,2.64.35,5.04,1.2,7.16,2.52ZM126.41,52.38c.3.92.57,2.07.8,3.47h-12.55c.4-1.92,1.1-3.54,2.1-4.79,1.07-1.42,2.52-2.1,4.44-2.1,1.55,0,2.69.27,3.49.92.8.65,1.37,1.45,1.72,2.52v-.02Z"/>
  <path class="st1" d="M222.55,85.19c-1.75,0-2.84-.65-3.42-2.07-.7-1.72-1.05-3.94-1.05-6.64v-13.45c0-4.97-.97-9.18-2.87-12.5-2.02-3.54-5.46-5.34-10.26-5.34-3.94,0-7.41,1.45-10.36,4.24-2,1.87-3.62,4.12-4.94,6.69-.55-2.52-1.55-4.74-2.87-6.59-2.1-2.87-5.32-4.34-9.58-4.34-3.87,0-7.29,1.42-10.26,4.14-1.7,1.57-3.12,3.42-4.32,5.46v-8.83h-2.07l-.35.45c-.92,1.27-2.15,2.15-3.79,2.7-1.67.6-3.99.9-6.81.9h-6.64v2.6h1.12c1.77,0,2.82.67,3.39,2.07.7,1.72,1.05,3.97,1.05,6.64v15.12c0,2.69-.35,4.92-1.05,6.64-.57,1.42-1.65,2.07-3.39,2.07h-1.12v2.6h25.18v-2.6h-1.1c-1.77,0-2.84-.65-3.42-2.07-.67-1.7-1-3.94-1-6.64v-7.56c.05-2.87.5-5.59,1.37-8.01.82-2.4,1.95-4.32,3.34-5.69,1.27-1.3,2.64-1.95,4.17-1.95s2.45.52,3.14,1.7c.77,1.3,1.25,2.94,1.4,4.84.15,2.07.22,5.02.22,8.73v7.94c0,2.69-.35,4.92-1,6.64-.57,1.42-1.67,2.07-3.42,2.07h-1.1v2.6h25.18v-2.6h-1.12c-1.77,0-2.84-.65-3.42-2.07-.67-1.7-1.02-3.94-1.02-6.64v-7.56c.05-2.87.5-5.59,1.37-8.01.85-2.4,1.97-4.32,3.34-5.69,1.3-1.3,2.67-1.95,4.19-1.95s2.45.52,3.12,1.7c.77,1.3,1.22,2.94,1.37,4.84.17,2.07.25,5.02.25,8.73v6.51c0,3.77,1.2,6.84,3.49,9.21,2.37,2.32,5.46,3.52,9.23,3.52h6.89v-2.6h-1.1v.05ZM205.99,59.69c-.17-2.27-.75-4.22-1.7-5.86-1.07-1.8-2.79-2.74-5.02-2.74-1.72,0-3.34.6-4.79,1.72.52-.62,1.1-1.22,1.65-1.8,2.54-2.42,5.46-3.62,8.86-3.62,3.99,0,6.69,1.4,8.33,4.22,1.72,2.97,2.57,6.81,2.57,11.4v13.45c0,2.99.42,5.49,1.2,7.49.27.62.6,1.2,1.02,1.65h-1.35c-3.19,0-5.74-.95-7.66-2.87-1.95-1.97-2.87-4.47-2.87-7.66v-6.51c0-3.82-.1-6.81-.25-8.88v.02ZM177.31,83.97c.8-1.97,1.2-4.47,1.2-7.49v-7.94c0-3.82-.07-6.81-.25-8.88-.15-2.27-.72-4.22-1.7-5.86-1.07-1.8-2.79-2.74-5.02-2.74-1.72,0-3.37.6-4.87,1.77.57-.67,1.15-1.3,1.82-1.9,2.55-2.4,5.41-3.54,8.73-3.54,3.57,0,6.11,1.12,7.81,3.44,1.72,2.4,2.77,5.59,3.07,9.41l.37,4.84c-.17,1.22-.27,2.5-.3,3.79v7.59c0,2.99.4,5.49,1.2,7.49.25.62.6,1.2.97,1.65h-14.05c.4-.45.75-1,1-1.65v.02ZM149.62,83.97c.8-1.97,1.2-4.49,1.2-7.49v-15.12c0-2.97-.4-5.46-1.2-7.44-.25-.62-.6-1.2-.97-1.67h1.07c3.12,0,5.59-.32,7.54-1.02,1.25-.4,2.32-1,3.27-1.77v16.87l.2-.62c-.12,1.05-.2,2.1-.2,3.19v7.59c0,2.99.4,5.49,1.2,7.49.25.62.55,1.2.97,1.65h-14.05c.4-.45.75-1,.97-1.65Z"/>
  <path class="st8" d="M240.65,28.08c-1.35-1.35-3.14-2.02-5.34-2.02s-3.92.7-5.24,2.02c-1.35,1.35-2.02,3.12-2.02,5.24s.67,3.99,2,5.32c1.35,1.37,3.12,2.02,5.26,2.02s3.99-.67,5.34-2.02c1.35-1.35,2.02-3.12,2.02-5.32s-.67-3.89-2.02-5.24ZM235.31,38.51c-1.55,0-2.77-.47-3.72-1.37-.92-.95-1.37-2.17-1.37-3.79s.45-2.74,1.37-3.69c.95-.95,2.15-1.4,3.72-1.4s2.84.45,3.77,1.4c.95.92,1.4,2.12,1.4,3.69s-.45,2.84-1.4,3.79c-.92.92-2.15,1.37-3.77,1.37ZM247.11,85.2c-1.75,0-2.84-.65-3.42-2.07-.67-1.7-1.02-3.94-1.02-6.64v-30.49h-2.05l-.32.45c-.95,1.27-2.17,2.15-3.82,2.69-1.7.6-3.97.9-6.79.9h-6.66v2.6h1.12c1.75,0,2.84.67,3.42,2.07.67,1.72,1.02,3.97,1.02,6.64v15.12c0,2.69-.35,4.92-1.02,6.64-.57,1.42-1.67,2.07-3.42,2.07h-1.12v2.6h25.18v-2.6h-1.12l.03.03ZM229.59,83.95c.8-1.97,1.2-4.49,1.2-7.46v-15.12c0-2.97-.4-5.46-1.2-7.44-.25-.62-.6-1.2-1-1.67h1.1c3.07,0,5.59-.32,7.54-1.02,1.22-.4,2.3-1,3.24-1.77v27.05c0,2.99.4,5.49,1.2,7.49.25.62.6,1.2,1,1.65h-14.05c.4-.45.75-1,1-1.65l-.02-.05Z"/>
  <path class="st9" d="M295.18,50.69c.57-1.42,1.67-2.1,3.42-2.1h1.1v-2.6h-25.15v2.6h1.1c1.8,0,2.84.67,3.42,2.1.7,1.7,1.05,3.97,1.05,6.64v7.59c0,2.57-.37,5.17-1.07,7.64-.7,2.42-1.72,4.42-2.99,5.91-1.2,1.4-2.5,2.1-4.04,2.1-1.45,0-2.45-.55-3.12-1.7-.8-1.3-1.25-2.97-1.37-4.87-.18-2.02-.25-4.99-.25-8.73v-7.94c0-2.69.35-4.92,1.05-6.64.55-1.42,1.65-2.1,3.42-2.1h1.1v-2.6h-25.15v2.6h1.1c1.75,0,2.84.67,3.42,2.1.7,1.7,1.05,3.97,1.05,6.64v13.47c0,4.97.97,9.18,2.87,12.5,2,3.52,5.46,5.32,10.26,5.32,3.82,0,7.16-1.3,9.91-3.94,1.7-1.65,3.17-3.57,4.32-5.76.55,2.12,1.57,3.97,3.07,5.46,2.37,2.32,5.47,3.54,9.23,3.54h6.89v-2.6h-1.1c-1.75,0-2.84-.67-3.42-2.07-.67-1.7-1-3.94-1-6.64v-19.26c0-2.7.35-4.92,1-6.64l-.07-.02ZM285.14,82.8c-1.95-1.95-2.87-4.44-2.87-7.66v-7.41l-.2.57c.12-1.12.2-2.25.2-3.39v-7.59c0-2.97-.4-5.46-1.2-7.44-.25-.65-.6-1.2-1-1.67h14.05c-.42.47-.75,1-1,1.67-.8,1.97-1.2,4.47-1.2,7.44v19.26c0,2.97.4,5.49,1.2,7.46.25.62.57,1.2,1,1.65h-1.35c-3.19,0-5.71-.95-7.66-2.89h.02ZM266.28,86.4c-3.99,0-6.74-1.37-8.33-4.19-1.72-2.99-2.6-6.84-2.6-11.4v-13.47c0-2.97-.4-5.46-1.2-7.44-.25-.65-.57-1.2-1-1.67h14.05c-.4.47-.72,1-1,1.67-.8,1.97-1.2,4.47-1.2,7.44v7.94c0,3.82.1,6.81.25,8.91.17,2.27.75,4.22,1.67,5.81,1.07,1.82,2.82,2.77,5.04,2.77,1.67,0,3.14-.55,4.47-1.62-.55.67-1.15,1.35-1.77,1.92-2.37,2.25-5.14,3.34-8.41,3.34h.03Z"/>
  <path class="st17" d="M378.56,85.19c-1.77,0-2.84-.65-3.42-2.07-.67-1.72-1-3.94-1-6.64v-13.45c0-4.97-.97-9.18-2.89-12.5-2-3.54-5.49-5.34-10.26-5.34-3.92,0-7.41,1.45-10.33,4.24-1.97,1.87-3.64,4.12-4.92,6.69-.6-2.52-1.57-4.74-2.89-6.59-2.07-2.87-5.29-4.34-9.56-4.34-3.87,0-7.31,1.42-10.26,4.14-1.67,1.57-3.14,3.42-4.34,5.46v-8.83h-2.05l-.32.45c-.95,1.27-2.17,2.15-3.79,2.7-1.7.6-3.99.9-6.81.9h-6.64v2.6h1.1c1.77,0,2.84.67,3.42,2.07.67,1.72,1.02,3.97,1.02,6.64v15.12c0,2.69-.35,4.92-1.02,6.64-.57,1.42-1.65,2.07-3.42,2.07h-1.1v2.6h25.15v-2.6h-1.12c-1.75,0-2.82-.65-3.39-2.07-.7-1.7-1.05-3.94-1.05-6.64v-7.56c.05-2.87.5-5.59,1.37-8.01.85-2.4,1.97-4.32,3.34-5.69,1.32-1.3,2.67-1.95,4.19-1.95s2.45.52,3.12,1.7c.77,1.3,1.25,2.94,1.4,4.84.17,2.07.25,5.02.25,8.73v7.94c0,2.69-.35,4.92-1.05,6.64-.55,1.42-1.65,2.07-3.42,2.07h-1.1v2.6h25.15v-2.6h-1.07c-1.77,0-2.84-.65-3.42-2.07-.7-1.7-1.05-3.94-1.05-6.64v-7.56c.05-2.87.52-5.59,1.37-8.01.82-2.4,1.97-4.32,3.34-5.69,1.3-1.3,2.67-1.95,4.19-1.95s2.45.52,3.12,1.7c.8,1.3,1.27,2.94,1.42,4.84.15,2.07.22,5.02.22,8.73v6.51c0,3.77,1.2,6.84,3.54,9.21,2.32,2.32,5.41,3.52,9.21,3.52h6.89v-2.6h-1.12l-.03.05ZM362.02,59.69c-.17-2.27-.75-4.22-1.7-5.86-1.07-1.8-2.79-2.74-5.02-2.74-1.72,0-3.32.6-4.79,1.72.52-.62,1.07-1.22,1.67-1.8,2.55-2.42,5.41-3.62,8.81-3.62,3.99,0,6.74,1.4,8.36,4.22,1.72,2.97,2.6,6.81,2.6,11.4v13.45c0,2.99.4,5.49,1.2,7.49.22.52.52,1.12.97,1.65h-1.3c-3.22,0-5.71-.95-7.66-2.87-1.95-1.97-2.89-4.47-2.89-7.66v-6.51c0-3.82-.07-6.81-.25-8.88v.02ZM332.35,85.59c.42-.45.75-1,1-1.65.77-1.97,1.2-4.47,1.2-7.49v-7.93c0-3.82-.1-6.81-.25-8.88-.17-2.27-.75-4.22-1.67-5.86-1.07-1.8-2.82-2.74-5.04-2.74-1.77,0-3.37.6-4.87,1.77.55-.67,1.17-1.3,1.8-1.9,2.57-2.4,5.44-3.54,8.78-3.54,3.57,0,6.11,1.12,7.79,3.44,1.72,2.4,2.77,5.59,3.07,9.41l.4,4.84c-.2,1.22-.3,2.5-.32,3.79v7.59c0,2.99.42,5.49,1.2,7.49.27.62.6,1.2,1.02,1.65h-14.07l-.02.03ZM305.62,83.97c.8-1.97,1.2-4.47,1.2-7.49v-15.12c0-2.97-.4-5.46-1.2-7.44-.25-.62-.57-1.2-1-1.67h1.1c3.12,0,5.59-.32,7.54-1.02,1.25-.4,2.32-1,3.24-1.77v16.87l.22-.62c-.12,1.05-.2,2.1-.22,3.19v7.59c0,2.99.4,5.49,1.2,7.49.25.62.6,1.2,1,1.65h-14.05c.4-.45.75-1,1-1.65h-.03Z"/>
</svg>